<!-- Exported by Character Map UWP -->
<svg height="100%" viewBox="49 -199 253 235" width="100%" xmlns="http://www.w3.org/2000/svg" xmlns:xlink="http://www.w3.org/1999/xlink">
  <path d="M229.75,-181.625C241.5,-175.625 252.125,-168.479 261.625,-160.188C271.125,-151.896 279.104,-142.958 285.563,-133.375C292.021,-123.792 296.625,-114.104 299.375,-104.313C302.125,-94.5208 302.688,-85.0625 301.063,-75.9375C299.438,-66.8125 295.25,-58.5417 288.5,-51.125C282.583,-44.625 276.167,-40.1458 269.25,-37.6875C262.333,-35.2292 255.396,-33.8542 248.438,-33.5625C241.479,-33.2708 234.917,-33.25 228.75,-33.5C222.583,-33.75 217.229,-33.375 212.688,-32.375C208.146,-31.375 204.833,-28.875 202.75,-24.875C201.5,-22.375 201.333,-19.7708 202.25,-17.0625C203.167,-14.3542 204.479,-11.5 206.188,-8.5C207.896,-5.5 209.354,-2.29167 210.563,1.125C211.771,4.54167 212.104,8.1875 211.563,12.0625C211.021,15.9375 208.917,20.1667 205.25,24.75C200.5,30.5 194.333,33.9792 186.75,35.1875C179.167,36.3958 170.938,36.0417 162.063,34.125C153.188,32.2083 144.333,29.3542 135.5,25.5625C126.667,21.7708 118.667,17.75 111.5,13.5C96.9167,4.83333 84.7917,-5.79167 75.125,-18.375C65.4583,-30.9583 58.5,-44.6042 54.25,-59.3125C50,-74.0208 48.7083,-88.8958 50.375,-103.938C52.0417,-118.979 56.9583,-133.208 65.125,-146.625C73.2917,-160.125 83.5833,-170.979 96,-179.188C108.417,-187.396 122.083,-192.979 137,-195.938C151.917,-198.896 167.333,-199.188 183.25,-196.813C199.167,-194.438 214.667,-189.375 229.75,-181.625ZM247.875,-63.25C255.708,-63.25 262.167,-65.8125 267.25,-70.9375C272.333,-76.0625 274.875,-82.5 274.875,-90.25C274.875,-98 272.333,-104.438 267.25,-109.563C262.167,-114.688 255.708,-117.25 247.875,-117.25C239.958,-117.25 233.479,-114.688 228.438,-109.563C223.396,-104.438 220.875,-98 220.875,-90.25C220.875,-82.5 223.396,-76.0625 228.438,-70.9375C233.479,-65.8125 239.958,-63.25 247.875,-63.25Z" fill="#FBB8AB" fill-opacity="1">
  </path>
  <path d="M160.025,-135.291C157.24,-135.291 154.623,-135.813 152.175,-136.858C149.726,-137.903 147.574,-139.354 145.717,-141.211C143.86,-143.068 142.404,-145.22 141.348,-147.668C140.292,-150.116 139.764,-152.744 139.764,-155.553C139.764,-158.338 140.292,-160.955 141.348,-163.403C142.404,-165.852 143.86,-168.01 145.717,-169.879C147.574,-171.747 149.726,-173.204 152.175,-174.248C154.623,-175.292 157.24,-175.814 160.025,-175.814C162.833,-175.814 165.461,-175.292 167.909,-174.248C170.358,-173.204 172.51,-171.747 174.367,-169.879C176.224,-168.01 177.68,-165.852 178.736,-163.403C179.792,-160.955 180.32,-158.338 180.32,-155.553C180.32,-152.744 179.792,-150.116 178.736,-147.668C177.68,-145.22 176.224,-143.068 174.367,-141.211C172.51,-139.354 170.358,-137.903 167.909,-136.858C165.461,-135.813 162.833,-135.291 160.025,-135.291Z" fill="#8D65C5" fill-opacity="1">
  </path>
  <path d="M105.9,-99.291C103.115,-99.291 100.498,-99.8135 98.0498,-100.858C95.6012,-101.903 93.4486,-103.354 91.5918,-105.211C89.735,-107.068 88.2786,-109.22 87.2227,-111.668C86.1667,-114.116 85.6387,-116.744 85.6387,-119.553C85.6387,-122.338 86.1667,-124.955 87.2227,-127.403C88.2786,-129.852 89.735,-132.01 91.5918,-133.879C93.4486,-135.747 95.6012,-137.204 98.0498,-138.248C100.498,-139.292 103.115,-139.814 105.9,-139.814C108.708,-139.814 111.336,-139.292 113.784,-138.248C116.233,-137.204 118.385,-135.747 120.242,-133.879C122.099,-132.01 123.555,-129.852 124.611,-127.403C125.667,-124.955 126.195,-122.338 126.195,-119.553C126.195,-116.744 125.667,-114.116 124.611,-111.668C123.555,-109.22 122.099,-107.068 120.242,-105.211C118.385,-103.354 116.233,-101.903 113.784,-100.858C111.336,-99.8135 108.708,-99.291 105.9,-99.291Z" fill="#F70A8D" fill-opacity="1">
  </path>
  <path d="M105.9,-36.166C103.115,-36.166 100.498,-36.6885 98.0498,-37.7334C95.6012,-38.7783 93.4486,-40.2292 91.5918,-42.0859C89.735,-43.9427 88.2786,-46.0951 87.2227,-48.543C86.1667,-50.9909 85.6387,-53.6191 85.6387,-56.4277C85.6387,-59.2129 86.1667,-61.8298 87.2227,-64.2783C88.2786,-66.7269 89.735,-68.8854 91.5918,-70.7539C93.4486,-72.6224 95.6012,-74.0788 98.0498,-75.123C100.498,-76.1673 103.115,-76.6895 105.9,-76.6895C108.708,-76.6895 111.336,-76.1673 113.784,-75.123C116.233,-74.0788 118.385,-72.6224 120.242,-70.7539C122.099,-68.8854 123.555,-66.7269 124.611,-64.2783C125.667,-61.8298 126.195,-59.2129 126.195,-56.4277C126.195,-53.6191 125.667,-50.9909 124.611,-48.543C123.555,-46.0951 122.099,-43.9427 120.242,-42.0859C118.385,-40.2292 116.233,-38.7783 113.784,-37.7334C111.336,-36.6885 108.708,-36.166 105.9,-36.166Z" fill="#00D26A" fill-opacity="1">
  </path>
  <path d="M155.525,4.33398C152.74,4.33398 150.123,3.81152 147.675,2.7666C145.226,1.72168 143.074,0.270833 141.217,-1.58594C139.36,-3.44271 137.904,-5.59505 136.848,-8.04297C135.792,-10.4909 135.264,-13.1191 135.264,-15.9277C135.264,-18.7129 135.792,-21.3298 136.848,-23.7783C137.904,-26.2269 139.36,-28.3854 141.217,-30.2539C143.074,-32.1224 145.226,-33.5788 147.675,-34.623C150.123,-35.6673 152.74,-36.1895 155.525,-36.1895C158.333,-36.1895 160.961,-35.6673 163.409,-34.623C165.858,-33.5788 168.01,-32.1224 169.867,-30.2539C171.724,-28.3854 173.18,-26.2269 174.236,-23.7783C175.292,-21.3298 175.82,-18.7129 175.82,-15.9277C175.82,-13.1191 175.292,-10.4909 174.236,-8.04297C173.18,-5.59505 171.724,-3.44271 169.867,-1.58594C168.01,0.270833 165.858,1.72168 163.409,2.7666C160.961,3.81152 158.333,4.33398 155.525,4.33398Z" fill="#3F5FFF" fill-opacity="1">
  </path>
</svg>