<!-- Exported by Character Map UWP -->
<svg height="100%" viewBox="49 -217 253 253" width="100%" xmlns="http://www.w3.org/2000/svg" xmlns:xlink="http://www.w3.org/1999/xlink">
  <path d="M108.25,-135.375L126.25,-135.375L126.25,-171.75C126.25,-174.417 125.292,-176.708 123.375,-178.625L117.25,-184.625L111.125,-178.625C109.208,-176.708 108.25,-174.417 108.25,-171.75ZM166.75,-135.375L184.75,-135.375L184.75,-171.75C184.75,-174.417 183.792,-176.708 181.875,-178.625L175.75,-184.625L169.625,-178.625C167.708,-176.708 166.75,-174.417 166.75,-171.75ZM225.375,-171.75C225.375,-174.417 226.333,-176.708 228.25,-178.625L234.375,-184.625L240.5,-178.625C242.417,-176.792 243.375,-174.5 243.375,-171.75L243.375,-135.375L225.375,-135.375Z" fill="#26EAFC" fill-opacity="1">
  </path>
  <path d="M128.75,-200.875C130,-198.625 130.667,-196.25 130.75,-193.75C130.75,-189.75 129.25,-186.417 126.25,-183.75C123.25,-181.083 119.708,-179.958 115.625,-180.375C112.542,-180.708 109.896,-181.979 107.688,-184.188C105.479,-186.396 104.167,-189.042 103.75,-192.125C103.417,-195.292 104.042,-198.208 105.625,-200.875L113.75,-214.375C114.5,-215.708 115.646,-216.375 117.188,-216.375C118.729,-216.375 119.875,-215.708 120.625,-214.375ZM187.25,-200.875C188.583,-198.708 189.292,-196.333 189.375,-193.75C189.375,-189.75 187.875,-186.417 184.875,-183.75C181.875,-181.083 178.375,-179.958 174.375,-180.375C171.208,-180.708 168.521,-182 166.313,-184.25C164.104,-186.5 162.833,-189.125 162.5,-192.125C162.083,-195.375 162.708,-198.292 164.375,-200.875L172.375,-214.375C173.125,-215.708 174.271,-216.375 175.813,-216.375C177.354,-216.375 178.5,-215.708 179.25,-214.375ZM237.875,-214.375C237.125,-215.708 235.958,-216.375 234.375,-216.375C232.792,-216.375 231.625,-215.708 230.875,-214.375L222.875,-200.875C221.292,-198.292 220.667,-195.375 221,-192.125C221.333,-189.042 222.625,-186.396 224.875,-184.188C227.125,-181.979 229.75,-180.708 232.75,-180.375C236.917,-179.958 240.479,-181.083 243.438,-183.75C246.396,-186.417 247.875,-189.75 247.875,-193.75C247.875,-196.25 247.208,-198.625 245.875,-200.875Z" fill="#FCD53F" fill-opacity="1">
  </path>
  <path d="M117.25,-206.125L111.75,-199.125C110.25,-197.542 109.5,-195.75 109.5,-193.75C109.5,-191.667 110.25,-189.875 111.75,-188.375C113.25,-186.875 115.083,-186.125 117.25,-186.125C119.333,-186.125 121.125,-186.875 122.625,-188.375C124.125,-189.875 124.875,-191.667 124.875,-193.75C124.875,-195.75 124.167,-197.542 122.75,-199.125ZM181.25,-199.125C182.667,-197.542 183.375,-195.75 183.375,-193.75C183.375,-191.583 182.646,-189.75 181.188,-188.25C179.729,-186.75 177.917,-186 175.75,-186C173.667,-186 171.875,-186.75 170.375,-188.25C168.875,-189.75 168.125,-191.583 168.125,-193.75C168.125,-195.833 168.833,-197.583 170.25,-199L175.75,-206.125ZM239.875,-199.125C241.292,-197.542 242,-195.75 242,-193.75C242,-191.583 241.25,-189.75 239.75,-188.25C238.25,-186.75 236.458,-186 234.375,-186C232.208,-186 230.375,-186.75 228.875,-188.25C227.375,-189.75 226.625,-191.583 226.625,-193.75C226.625,-195.833 227.375,-197.583 228.875,-199L234.375,-206.125Z" fill="#FFB02E" fill-opacity="1">
  </path>
  <path d="M281.625,35.875C284.708,35.875 287.354,34.7708 289.563,32.5625C291.771,30.3542 292.875,27.7083 292.875,24.625L292.875,-99.25L58.625,-99.25L58.625,24.625C58.625,27.7083 59.7292,30.3542 61.9375,32.5625C64.1458,34.7708 66.7917,35.875 69.875,35.875Z" fill="#D3883E" fill-opacity="1">
  </path>
  <path d="M49.625,-126.25L49.625,-76.25C49.625,-73.75 50.4583,-71.7917 52.125,-70.375C53.7917,-68.9583 55.7292,-68.2708 57.9375,-68.3125C60.1458,-68.3542 62.0833,-69.2917 63.75,-71.125C66,-73.9583 68.9375,-75.5625 72.5625,-75.9375C76.1875,-76.3125 79.4167,-75.4167 82.25,-73.25L84.375,-71.5C90.9583,-66.4167 98.375,-63.875 106.625,-63.875C114.875,-63.875 122.292,-66.4167 128.875,-71.5L133,-74.75C135.417,-76.6667 138.167,-77.625 141.25,-77.625C144.333,-77.625 147.083,-76.6667 149.5,-74.75L153.625,-71.5C160.125,-66.4167 167.521,-63.875 175.813,-63.875C184.104,-63.875 191.5,-66.4167 198,-71.5L202.125,-74.75C204.625,-76.6667 207.396,-77.625 210.438,-77.625C213.479,-77.625 216.208,-76.6667 218.625,-74.75L222.75,-71.5C229.333,-66.4167 236.75,-63.875 245,-63.875C253.25,-63.875 260.667,-66.4167 267.25,-71.5L269.375,-73.25C272.208,-75.5 275.438,-76.4167 279.063,-76C282.688,-75.5833 285.667,-73.9583 288,-71.125C289.5,-69.2083 291.354,-68.25 293.563,-68.25C295.771,-68.25 297.729,-68.9583 299.438,-70.375C301.146,-71.7917 302,-73.75 302,-76.25L302,-81.25L302,-126.25C302,-133.75 299.354,-140.146 294.063,-145.438C288.771,-150.729 282.417,-153.375 275,-153.375L76.625,-153.375C69.2083,-153.375 62.8542,-150.729 57.5625,-145.438C52.2708,-140.146 49.625,-133.75 49.625,-126.25ZM58.625,-36.25L58.625,-18.25L292.875,-18.25L292.875,-36.25Z" fill="#FFDEA7" fill-opacity="1">
  </path>
  <path d="M168.125,-134C168.958,-134.833 170,-135.25 171.25,-135.25C172.5,-135.25 173.583,-134.833 174.5,-134L181.125,-127.25C183.292,-125.167 183.292,-123.042 181.125,-120.875C179.042,-118.708 176.917,-118.708 174.75,-120.875L168.125,-127.5C165.958,-129.667 165.958,-131.833 168.125,-134Z" fill="#00A6ED" fill-opacity="1">
  </path>
  <path d="M93.375,-134L102.375,-125C103.292,-124.083 103.75,-123 103.75,-121.75C103.75,-120.5 103.292,-119.458 102.375,-118.625C101.458,-117.708 100.396,-117.25 99.1875,-117.25C97.9792,-117.25 96.9167,-117.708 96,-118.625L87,-127.625C86.0833,-128.458 85.625,-129.5 85.625,-130.75C85.625,-132 86.0833,-133.083 87,-134C87.9167,-134.833 88.9792,-135.25 90.1875,-135.25C91.3958,-135.25 92.4583,-134.833 93.375,-134ZM210.5,-107L219.5,-98C220.417,-97.0833 220.875,-96 220.875,-94.75C220.875,-93.5 220.417,-92.4583 219.5,-91.625C218.583,-90.7083 217.521,-90.25 216.313,-90.25C215.104,-90.25 214.042,-90.7083 213.125,-91.625L204.125,-100.625C203.208,-101.458 202.75,-102.5 202.75,-103.75C202.75,-105 203.208,-106.083 204.125,-107C205.042,-107.833 206.104,-108.25 207.313,-108.25C208.521,-108.25 209.583,-107.833 210.5,-107Z" fill="#FF6DC6" fill-opacity="1">
  </path>
  <path d="M264.5,-127.625L255.5,-118.625C254.667,-117.708 253.625,-117.25 252.375,-117.25C251.125,-117.25 250.042,-117.708 249.125,-118.625C248.292,-119.458 247.875,-120.5 247.875,-121.75C247.875,-123 248.292,-124.083 249.125,-125L258.125,-134C259.042,-134.833 260.125,-135.25 261.375,-135.25C262.625,-135.25 263.667,-134.833 264.5,-134C265.417,-133.083 265.875,-132 265.875,-130.75C265.875,-129.5 265.417,-128.458 264.5,-127.625ZM138.375,-100.625L129.375,-91.625C128.542,-90.7083 127.5,-90.25 126.25,-90.25C125,-90.25 123.917,-90.7083 123,-91.625C122.167,-92.4583 121.75,-93.5 121.75,-94.75C121.75,-96 122.167,-97.0833 123,-98L132,-107C132.917,-107.833 134,-108.25 135.25,-108.25C136.5,-108.25 137.542,-107.833 138.375,-107C139.292,-106.083 139.75,-105 139.75,-103.75C139.75,-102.5 139.292,-101.458 138.375,-100.625Z" fill="#FF822D" fill-opacity="1">
  </path>
  <path d="M168.125,-134C167.208,-133.083 166.75,-132 166.75,-130.75C166.75,-129.5 167.208,-128.458 168.125,-127.625L177.125,-118.625C177.958,-117.708 179,-117.25 180.25,-117.25C181.5,-117.25 182.583,-117.708 183.5,-118.625C184.333,-119.458 184.75,-120.5 184.75,-121.75C184.75,-123 184.333,-124.083 183.5,-125L174.5,-134C173.583,-134.833 172.5,-135.25 171.25,-135.25C170,-135.25 168.958,-134.833 168.125,-134Z" fill="#00A6ED" fill-opacity="1">
  </path>
</svg>