<!-- Exported by Character Map UWP -->
<svg height="100%" viewBox="40 -172 271 217" width="100%" xmlns="http://www.w3.org/2000/svg" xmlns:xlink="http://www.w3.org/1999/xlink">
  <path d="M117.5,-171.375C129.25,-171.375 140.188,-168.917 150.313,-164C160.438,-159.083 169,-152.458 176,-144.125C183,-152.458 191.583,-159.083 201.75,-164C211.917,-168.917 222.875,-171.375 234.625,-171.375C245.208,-171.375 255.125,-169.375 264.375,-165.375C273.625,-161.375 281.75,-155.875 288.75,-148.875C295.75,-141.875 301.229,-133.75 305.188,-124.5C309.146,-115.25 311.125,-105.333 311.125,-94.75L311.125,-31.75C311.125,-21.1667 309.146,-11.25 305.188,-2C301.229,7.25 295.75,15.3958 288.75,22.4375C281.75,29.4792 273.625,34.9792 264.375,38.9375C255.125,42.8958 245.208,44.875 234.625,44.875C222.875,44.875 211.917,42.4167 201.75,37.5C191.583,32.5833 183,25.9583 176,17.625C169,25.9583 160.438,32.5833 150.313,37.5C140.188,42.4167 129.25,44.875 117.5,44.875C106.917,44.875 97,42.8958 87.75,38.9375C78.5,34.9792 70.3542,29.4792 63.3125,22.4375C56.2708,15.3958 50.7708,7.25 46.8125,-2C42.8542,-11.25 40.875,-21.1667 40.875,-31.75L40.875,-94.75C40.875,-105.333 42.8542,-115.25 46.8125,-124.5C50.7708,-133.75 56.2708,-141.875 63.3125,-148.875C70.3542,-155.875 78.5,-161.375 87.75,-165.375C97,-169.375 106.917,-171.375 117.5,-171.375Z" fill="#9B9B9B" fill-opacity="1">
  </path>
  <path d="M117.5,-162.375C130,-162.375 141.417,-159.25 151.75,-153C162.083,-146.75 170.167,-138.583 176,-128.5C181.833,-138.583 189.917,-146.75 200.25,-153C210.583,-159.25 222.042,-162.375 234.625,-162.375C243.958,-162.375 252.708,-160.625 260.875,-157.125C269.042,-153.625 276.208,-148.771 282.375,-142.563C288.542,-136.354 293.375,-129.167 296.875,-121C300.375,-112.833 302.125,-104.083 302.125,-94.75L302.125,-31.75C302.125,-22.4167 300.375,-13.6667 296.875,-5.5C293.375,2.66667 288.542,9.85417 282.375,16.0625C276.208,22.2708 269.042,27.125 260.875,30.625C252.708,34.125 243.958,35.875 234.625,35.875C222.042,35.875 210.583,32.7708 200.25,26.5625C189.917,20.3542 181.833,12.1667 176,2C170.167,12.1667 162.083,20.3542 151.75,26.5625C141.417,32.7708 130,35.875 117.5,35.875C108.167,35.875 99.4167,34.125 91.25,30.625C83.0833,27.125 75.8958,22.2708 69.6875,16.0625C63.4792,9.85417 58.625,2.66667 55.125,-5.5C51.625,-13.6667 49.875,-22.4167 49.875,-31.75L49.875,-94.75C49.875,-104.083 51.625,-112.833 55.125,-121C58.625,-129.167 63.4792,-136.354 69.6875,-142.563C75.8958,-148.771 83.0833,-153.625 91.25,-157.125C99.4167,-160.625 108.167,-162.375 117.5,-162.375Z" fill="#FFFFFF" fill-opacity="1">
  </path>
  <path d="M167,-94.75L167,-31.75C167,-25.5833 167.792,-19.6458 169.375,-13.9375C170.958,-8.22917 173.167,-2.91667 176,2C167.75,16.4167 155.833,26.375 140.25,31.875C145.583,27.875 149.479,23.5833 151.938,19C154.396,14.4167 155.979,9.79167 156.688,5.125C157.396,0.458333 157.75,-3.91667 157.75,-8L157.75,-117.25C157.75,-121 156.979,-125.688 155.438,-131.313C153.896,-136.938 151.813,-142.271 149.188,-147.313C146.563,-152.354 143.583,-155.875 140.25,-157.875L141.75,-157.875C156.583,-152.125 168,-142.333 176,-128.5C173.167,-123.5 170.958,-118.167 169.375,-112.5C167.792,-106.833 167,-100.917 167,-94.75Z" fill="#D3D3D3" fill-opacity="1">
  </path>
  <path d="M302.125,-94.75L302.125,-31.75C302.125,-21.9167 300.208,-12.7708 296.375,-4.3125C292.542,4.14583 287.271,11.5208 280.563,17.8125C273.854,24.1042 266.125,28.7917 257.375,31.875C265.375,25.875 271.75,19.0833 276.5,11.5C281.25,3.91667 283.625,-2.95833 283.625,-9.125L283.625,-117C283.625,-121.417 282.479,-126.167 280.188,-131.25C277.896,-136.333 274.771,-141.208 270.813,-145.875C266.854,-150.542 262.375,-154.542 257.375,-157.875L258.875,-157.875C267.292,-154.625 274.771,-149.875 281.313,-143.625C287.854,-137.375 292.958,-130.063 296.625,-121.688C300.292,-113.312 302.125,-104.333 302.125,-94.75Z" fill="#D3D3D3" fill-opacity="1">
  </path>
  <path d="M91,-117.25C96.8333,-117.25 102.125,-115.833 106.875,-113C111.625,-110.167 115.417,-106.375 118.25,-101.625C121.083,-96.875 122.5,-91.5833 122.5,-85.75L122.5,-40.75C122.5,-34.9167 121.083,-29.6042 118.25,-24.8125C115.417,-20.0208 111.625,-16.2083 106.875,-13.375C102.125,-10.5417 96.8333,-9.125 91,-9.125C85.1667,-9.125 79.875,-10.5417 75.125,-13.375C70.375,-16.2083 66.5833,-20.0208 63.75,-24.8125C60.9167,-29.6042 59.5,-34.9167 59.5,-40.75L59.5,-85.75C59.5,-91.5833 60.9167,-96.875 63.75,-101.625C66.5833,-106.375 70.375,-110.167 75.125,-113C79.875,-115.833 85.1667,-117.25 91,-117.25Z" fill="#321B41" fill-opacity="1">
  </path>
  <path d="M207.625,-117.25C213.458,-117.25 218.75,-115.833 223.5,-113C228.25,-110.167 232.042,-106.375 234.875,-101.625C237.708,-96.875 239.125,-91.5833 239.125,-85.75L239.125,-40.75C239.125,-34.9167 237.708,-29.6042 234.875,-24.8125C232.042,-20.0208 228.25,-16.2083 223.5,-13.375C218.75,-10.5417 213.458,-9.125 207.625,-9.125C201.792,-9.125 196.5,-10.5417 191.75,-13.375C187,-16.2083 183.208,-20.0208 180.375,-24.8125C177.542,-29.6042 176.125,-34.9167 176.125,-40.75L176.125,-85.75C176.125,-91.5833 177.542,-96.875 180.375,-101.625C183.208,-106.375 187,-110.167 191.75,-113C196.5,-115.833 201.792,-117.25 207.625,-117.25Z" fill="#321B41" fill-opacity="1">
  </path>
  <path d="M110.625,-82.5C108.958,-81.0833 106.896,-80.6458 104.438,-81.1875C101.979,-81.7292 99.875,-83.0417 98.125,-85.125C96.375,-87.2917 95.4583,-89.6042 95.375,-92.0625C95.2917,-94.5208 96.0833,-96.4583 97.75,-97.875C99.4167,-99.2917 101.479,-99.7292 103.938,-99.1875C106.396,-98.6458 108.5,-97.3333 110.25,-95.25C112,-93.0833 112.917,-90.7708 113,-88.3125C113.083,-85.8542 112.292,-83.9167 110.625,-82.5Z" fill="#F4F4F4" fill-opacity="1">
  </path>
  <path d="M227.75,-82.5C226.083,-81.0833 224.021,-80.6458 221.563,-81.1875C219.104,-81.7292 217,-83.0417 215.25,-85.125C213.5,-87.2917 212.583,-89.6042 212.5,-92.0625C212.417,-94.5208 213.208,-96.4583 214.875,-97.875C216.542,-99.2917 218.604,-99.7292 221.063,-99.1875C223.521,-98.6458 225.625,-97.3333 227.375,-95.25C229.125,-93.0833 230.042,-90.7708 230.125,-88.3125C230.208,-85.8542 229.417,-83.9167 227.75,-82.5Z" fill="#F4F4F4" fill-opacity="1">
  </path>
</svg>