<!-- Exported by Character Map UWP -->
<svg height="100%" viewBox="49 -217 253 253" width="100%" xmlns="http://www.w3.org/2000/svg" xmlns:xlink="http://www.w3.org/1999/xlink">
  <path d="M175.75,35.875C154.75,35.875 136.354,32.6042 120.563,26.0625C104.771,19.5208 91.625,10.4792 81.125,-1.0625C70.625,-12.6042 62.75,-26 57.5,-41.25C52.25,-56.5 49.625,-72.8333 49.625,-90.25C49.625,-107.667 52.25,-124 57.5,-139.25C62.75,-154.5 70.625,-167.896 81.125,-179.438C91.625,-190.979 104.771,-200.021 120.563,-206.563C136.354,-213.104 154.75,-216.375 175.75,-216.375C196.75,-216.375 215.146,-213.104 230.938,-206.563C246.729,-200.021 259.875,-190.979 270.375,-179.438C280.875,-167.896 288.75,-154.5 294,-139.25C299.25,-124 301.875,-107.667 301.875,-90.25C301.875,-72.8333 299.25,-56.5 294,-41.25C288.75,-26 280.875,-12.6042 270.375,-1.0625C259.875,10.4792 246.729,19.5208 230.938,26.0625C215.146,32.6042 196.75,35.875 175.75,35.875Z" fill="#FFB02E" fill-opacity="1">
  </path>
  <path d="M121.5,-115.625C121.083,-113.125 119.833,-111.188 117.75,-109.813C115.667,-108.438 113.417,-108 111,-108.5C108.583,-108.917 106.667,-110.167 105.25,-112.25C103.833,-114.333 103.375,-116.583 103.875,-119C104.292,-121.083 105.063,-123.563 106.188,-126.438C107.313,-129.313 109.125,-132.083 111.625,-134.75C114.208,-137.583 117.458,-139.896 121.375,-141.688C125.292,-143.479 129.917,-144.375 135.25,-144.375C140.583,-144.375 145.229,-143.458 149.188,-141.625C153.146,-139.792 156.417,-137.458 159,-134.625C161.417,-131.875 163.208,-129.063 164.375,-126.188C165.542,-123.312 166.292,-120.875 166.625,-118.875C167.042,-116.375 166.542,-114.104 165.125,-112.063C163.708,-110.021 161.75,-108.792 159.25,-108.375C156.833,-107.958 154.604,-108.479 152.563,-109.938C150.521,-111.396 149.292,-113.333 148.875,-115.75C148.708,-116.667 148.375,-117.75 147.875,-119C147.375,-120.25 146.625,-121.417 145.625,-122.5C144.792,-123.417 143.563,-124.271 141.938,-125.063C140.313,-125.854 138.083,-126.25 135.25,-126.25C132.25,-126.25 129.979,-125.854 128.438,-125.063C126.896,-124.271 125.708,-123.458 124.875,-122.625C123.958,-121.542 123.229,-120.375 122.688,-119.125C122.146,-117.875 121.75,-116.708 121.5,-115.625Z" fill="#402A32" fill-opacity="1">
  </path>
  <path d="M202.625,-115.625C202.125,-113.125 200.854,-111.188 198.813,-109.813C196.771,-108.438 194.542,-108 192.125,-108.5C189.625,-108.917 187.688,-110.167 186.313,-112.25C184.938,-114.333 184.5,-116.583 185,-119C185.333,-121.083 186.083,-123.563 187.25,-126.438C188.417,-129.313 190.208,-132.083 192.625,-134.75C195.292,-137.583 198.583,-139.896 202.5,-141.688C206.417,-143.479 211.042,-144.375 216.375,-144.375C221.708,-144.375 226.354,-143.458 230.313,-141.625C234.271,-139.792 237.542,-137.458 240.125,-134.625C242.542,-131.875 244.333,-129.063 245.5,-126.188C246.667,-123.312 247.417,-120.875 247.75,-118.875C248.167,-116.375 247.667,-114.104 246.25,-112.063C244.833,-110.021 242.875,-108.792 240.375,-108.375C237.958,-107.958 235.729,-108.479 233.688,-109.938C231.646,-111.396 230.417,-113.333 230,-115.75C229.833,-116.667 229.5,-117.75 229,-119C228.5,-120.25 227.75,-121.417 226.75,-122.5C225.917,-123.417 224.688,-124.271 223.063,-125.063C221.438,-125.854 219.208,-126.25 216.375,-126.25C213.375,-126.25 211.083,-125.854 209.5,-125.063C207.917,-124.271 206.75,-123.458 206,-122.625C205,-121.542 204.25,-120.375 203.75,-119.125C203.25,-117.875 202.875,-116.708 202.625,-115.625Z" fill="#402A32" fill-opacity="1">
  </path>
  <path d="M175.75,-9.125C189.25,-9.125 200.667,-11.0833 210,-15C219.333,-18.9167 226.958,-23.9583 232.875,-30.125C238.792,-36.2917 243.396,-42.8333 246.688,-49.75C249.979,-56.6667 252.354,-63.1875 253.813,-69.3125C255.271,-75.4375 256.146,-80.4583 256.438,-84.375C256.729,-88.2917 256.875,-90.25 256.875,-90.25L94.75,-90.25C94.75,-90.25 94.8958,-88.2917 95.1875,-84.375C95.4792,-80.4583 96.3333,-75.4375 97.75,-69.3125C99.1667,-63.1875 101.521,-56.6667 104.813,-49.75C108.104,-42.8333 112.729,-36.2917 118.688,-30.125C124.646,-23.9583 132.271,-18.9167 141.563,-15C150.854,-11.0833 162.25,-9.125 175.75,-9.125Z" fill="#BB1D80" fill-opacity="1">
  </path>
  <path d="M103.75,-85.75C103.75,-83.25 104.625,-81.125 106.375,-79.375C108.125,-77.625 110.25,-76.75 112.75,-76.75L238.875,-76.75C241.375,-76.75 243.5,-77.625 245.25,-79.375C247,-81.125 247.875,-83.25 247.875,-85.75L247.875,-90.25L103.75,-90.25Z" fill="#FFFFFF" fill-opacity="1">
  </path>
  <path d="M247.875,-193.875L247.875,-148.75C247.875,-142.583 250.062,-137.292 254.438,-132.875C258.813,-128.458 264.125,-126.25 270.375,-126.25C276.625,-126.25 281.938,-128.458 286.313,-132.875C290.688,-137.292 292.875,-142.583 292.875,-148.75L292.875,-193.875C292.875,-200.125 290.688,-205.437 286.313,-209.813C281.938,-214.187 276.625,-216.375 270.375,-216.375C264.125,-216.375 258.813,-214.187 254.438,-209.813C250.062,-205.437 247.875,-200.125 247.875,-193.875Z" fill="#3F5FFF" fill-opacity="1">
  </path>
</svg>