<!-- Exported by Character Map UWP -->
<svg height="100%" viewBox="85 -217 181 253" width="100%" xmlns="http://www.w3.org/2000/svg" xmlns:xlink="http://www.w3.org/1999/xlink">
  <path d="M155.5,-183.25C155.5,-185 155.167,-186.667 154.5,-188.25L154.5,-188.25C154.167,-189.083 153.792,-189.75 153.375,-190.25L153.375,-190.25C152.042,-192.417 151.375,-194.75 151.375,-197.25L151.375,-197.25C151.375,-200.833 150.104,-203.875 147.563,-206.375C145.021,-208.875 142,-210.125 138.5,-210.125C137.667,-210.125 137.042,-210.417 136.625,-211C134.042,-214.583 130.583,-216.375 126.25,-216.375C121.833,-216.375 118.333,-214.583 115.75,-211C115.333,-210.417 114.75,-210.125 114,-210.125C113.917,-210.125 113.854,-210.125 113.813,-210.125C113.771,-210.125 113.708,-210.125 113.625,-210.125C110.208,-210.042 107.271,-208.75 104.813,-206.25C102.354,-203.75 101.125,-200.75 101.125,-197.25L101.125,-197.25C101.125,-194.75 100.458,-192.417 99.125,-190.25L99,-190.25C97.6667,-188.083 97,-185.75 97,-183.25C97,-181.333 97.4167,-179.458 98.25,-177.625C98.5,-177.042 98.5,-176.458 98.25,-175.875C97.4167,-174.125 97,-172.292 97,-170.375C97,-166.875 98.2083,-163.917 100.625,-161.5C103.042,-159.083 106,-157.875 109.5,-157.875L143,-157.875C146.417,-157.875 149.354,-159.083 151.813,-161.5C154.271,-163.917 155.5,-166.875 155.5,-170.375C155.5,-172.292 155.083,-174.125 154.25,-175.875C153.917,-176.458 153.917,-177.042 154.25,-177.625C155.083,-179.375 155.5,-181.25 155.5,-183.25Z" fill="#F1A11E" fill-opacity="1">
  </path>
  <path d="M121.75,35.875L94.875,35.875C94.875,35.875 94.8125,35.1875 94.6875,33.8125C94.5625,32.4375 94.9583,31.4167 95.875,30.75C100.375,27.6667 103,25.5 103.75,24.25C104.5,23 104.875,22.375 104.875,22.375L121.75,22.375Z" fill="#533566" fill-opacity="1">
  </path>
  <path d="M130.75,35.875L157.625,35.875C157.625,35.875 157.688,35.1875 157.813,33.8125C157.938,32.4375 157.542,31.4167 156.625,30.75C152.125,27.6667 149.5,25.5 148.75,24.25C148,23 147.625,22.375 147.625,22.375L130.75,22.375Z" fill="#533566" fill-opacity="1">
  </path>
  <path d="M112.375,-153.375C111.625,-152.958 110.854,-152.583 110.063,-152.25C109.271,-151.917 108.417,-151.583 107.5,-151.25C104.917,-150.333 102.208,-149 99.375,-147.25C96.5417,-145.5 93.9792,-142.375 91.6875,-137.875C89.3958,-133.375 87.7083,-126.5 86.625,-117.25C85.375,-106.417 85.4167,-90.5 86.75,-69.5C86.8333,-68.25 87.0417,-66.9375 87.375,-65.5625C87.7083,-64.1875 88,-63.0417 88.25,-62.125C88.3333,-61.625 88.375,-61.3333 88.375,-61.25C89.125,-58.0833 90.3333,-55.0833 92,-52.25C92.5833,-51.1667 93.6042,-50.8125 95.0625,-51.1875C96.5208,-51.5625 97.1667,-52.4583 97,-53.875C97,-54.5417 96.7708,-56.0208 96.3125,-58.3125C95.8542,-60.6042 95.625,-61.75 95.625,-61.75C95.625,-61.75 95.5208,-62.4792 95.3125,-63.9375C95.1042,-65.3958 95.7083,-66.1667 97.125,-66.25C97.9583,-66.3333 98.5208,-66.0208 98.8125,-65.3125C99.1042,-64.6042 99.3333,-63.8333 99.5,-63C99.6667,-61.8333 99.875,-61.125 100.125,-60.875C100.625,-60.2083 101.521,-59.9375 102.813,-60.0625C104.104,-60.1875 104.708,-60.625 104.625,-61.375L103.875,-70C102.625,-81.9167 102.375,-91.8333 103.125,-99.75C103.875,-107.667 105.062,-113.958 106.688,-118.625C108.312,-123.292 109.896,-126.646 111.438,-128.688C112.979,-130.729 113.875,-131.875 114.125,-132.125C114.125,-132.208 114.146,-132.25 114.188,-132.25C114.229,-132.25 114.25,-132.25 114.25,-132.25L113.25,-141.75Z" fill="#FFC83D" fill-opacity="1">
  </path>
  <path d="M168.625,-65.625C169.125,-64.5417 169.833,-63.5833 170.75,-62.75C171.667,-61.9167 172.708,-61.2917 173.875,-60.875L175.75,-60.875C178,-57.5417 180.021,-56.4792 181.813,-57.6875C183.604,-58.8958 184.583,-60.75 184.75,-63.25C184.833,-63.8333 184.854,-64.625 184.813,-65.625C184.771,-66.625 184.625,-67.375 184.375,-67.875C182.542,-71.9583 180.521,-76.9583 178.313,-82.875C176.104,-88.7917 173.917,-94.9167 171.75,-101.25C169.583,-107.583 167.583,-113.542 165.75,-119.125C163.917,-124.708 162.438,-129.271 161.313,-132.813C160.188,-136.354 159.625,-138.167 159.625,-138.25L145,-133.75C145.167,-133.25 146.021,-130.542 147.563,-125.625C149.104,-120.708 151.063,-114.667 153.438,-107.5C155.813,-100.333 158.354,-93 161.063,-85.5C163.771,-78 166.292,-71.375 168.625,-65.625Z" fill="#FFC83D" fill-opacity="1">
  </path>
  <path d="M169.25,-69.25C167.583,-68.25 167.292,-66.9167 168.375,-65.25L171,-61C172.083,-59.25 173.458,-58.9167 175.125,-60C176.792,-61.0833 177.125,-62.4583 176.125,-64.125L173.375,-68.375C172.292,-70.0417 170.917,-70.3333 169.25,-69.25Z" fill="#F59F00" fill-opacity="1">
  </path>
  <path d="M91.375,-64.875C89.875,-63.625 89.75,-62.25 91,-60.75L94.125,-56.75C95.375,-55.25 96.75,-55.125 98.25,-56.375C99.8333,-57.625 100,-59 98.75,-60.5L95.625,-64.375C94.375,-65.9583 92.9583,-66.125 91.375,-64.875Z" fill="#F59F00" fill-opacity="1">
  </path>
  <path d="M99.25,-90.25L153.25,-90.25L148.75,22.375L130.75,22.375L128.125,-69.75C128.125,-71.3333 127.438,-72.1458 126.063,-72.1875C124.688,-72.2292 124,-71.4167 124,-69.75L121.75,22.375L103.75,22.375Z" fill="#636363" fill-opacity="1">
  </path>
  <path d="M153.25,-120.875L165.625,-120.875C166.375,-120.875 166.708,-121.292 166.625,-122.125C166.208,-126.958 164.792,-131.604 162.375,-136.063C159.958,-140.521 156.917,-144.375 153.25,-147.625C149.667,-151.292 145.542,-154.083 140.875,-156C136.208,-158 131.333,-159 126.25,-159C121.167,-159 116.292,-158 111.625,-156C106.875,-154.083 102.75,-151.292 99.25,-147.625C95.5833,-144.375 92.5208,-140.521 90.0625,-136.063C87.6042,-131.604 86.1667,-126.958 85.75,-122.125C85.6667,-121.292 86.0417,-120.875 86.875,-120.875L99.25,-120.875L99.25,-90.25L153.25,-90.25Z" fill="#8B62BF" fill-opacity="1">
  </path>
  <path d="M117.875,-163.375L117.875,-163.375L117.875,-158C117.875,-155.75 118.625,-153.833 120.125,-152.25C121.708,-150.667 123.583,-149.875 125.75,-149.875L125.75,-149.875C127.917,-149.875 129.75,-150.667 131.25,-152.25C132.833,-153.833 133.625,-155.75 133.625,-158L133.625,-163.375Z" fill="#FCB100" fill-opacity="1">
  </path>
  <path d="M114.986,-182.635C114.986,-183.88 114.683,-185.013 114.075,-186.035C113.468,-187.057 112.653,-187.872 111.63,-188.48C110.607,-189.089 109.473,-189.393 108.229,-189.393C106.985,-189.393 105.852,-189.089 104.829,-188.48C103.806,-187.872 102.991,-187.057 102.384,-186.035C101.776,-185.013 101.473,-183.88 101.473,-182.635C101.473,-181.391 101.776,-180.258 102.384,-179.235C102.991,-178.213 103.806,-177.397 104.829,-176.79C105.852,-176.183 106.985,-175.879 108.229,-175.879C109.473,-175.879 110.607,-176.183 111.63,-176.79C112.653,-177.397 113.468,-178.213 114.075,-179.235C114.683,-180.258 114.986,-181.391 114.986,-182.635Z" fill="#FDBB11" fill-opacity="1">
  </path>
  <path d="M150.986,-182.635C150.986,-183.88 150.683,-185.013 150.075,-186.035C149.468,-187.057 148.653,-187.872 147.63,-188.48C146.607,-189.089 145.473,-189.393 144.229,-189.393C142.985,-189.393 141.852,-189.089 140.829,-188.48C139.806,-187.872 138.991,-187.057 138.384,-186.035C137.776,-185.013 137.473,-183.88 137.473,-182.635C137.473,-181.391 137.776,-180.258 138.384,-179.235C138.991,-178.213 139.806,-177.397 140.829,-176.79C141.852,-176.183 142.985,-175.879 144.229,-175.879C145.473,-175.879 146.607,-176.183 147.63,-176.79C148.653,-177.397 149.468,-178.213 150.075,-179.235C150.683,-180.258 150.986,-181.391 150.986,-182.635Z" fill="#FDBB11" fill-opacity="1">
  </path>
  <path d="M106.25,-188L106.625,-178.375C106.875,-172.625 108.854,-168.021 112.563,-164.563C116.271,-161.104 120.708,-159.375 125.875,-159.375C131.042,-159.375 135.5,-161.104 139.25,-164.563C143,-168.021 144.958,-172.625 145.125,-178.375L145.5,-188L145.625,-189.75C145.542,-192.5 144.875,-194.167 143.625,-194.75C142.375,-195.333 141.583,-195.625 141.25,-195.625L128.75,-195.625C123.5,-195.625 119.417,-197.875 116.5,-202.375C116.25,-202.708 115.917,-202.854 115.5,-202.813C115.083,-202.771 114.792,-202.583 114.625,-202.25L114.375,-201.375C113.542,-199.125 112,-197.458 109.75,-196.375C109.75,-196.375 109.708,-196.333 109.625,-196.25C109.542,-196.25 109.479,-196.25 109.438,-196.25C109.396,-196.25 109.375,-196.25 109.375,-196.25C108.958,-196 108.354,-195.438 107.563,-194.563C106.771,-193.688 106.333,-192.292 106.25,-190.375L106.25,-189.125L106.375,-188Z" fill="#FFC83D" fill-opacity="1">
  </path>
  <path d="M115.375,-187.875C113.708,-187.875 112.292,-187.417 111.125,-186.5C110.125,-185.75 110.083,-185 111,-184.25L112.875,-182.625C113.625,-182.875 114.396,-183.125 115.188,-183.375C115.979,-183.625 116.75,-183.833 117.5,-184C118.667,-184.333 119.583,-184.625 120.25,-184.875C119.75,-185.625 119.083,-186.313 118.25,-186.938C117.417,-187.563 116.458,-187.875 115.375,-187.875Z" fill="#000000" fill-opacity="1">
  </path>
  <path d="M137.25,-187.875C138.833,-187.875 140.208,-187.417 141.375,-186.5C142.458,-185.75 142.5,-185 141.5,-184.25L139.75,-182.625C138.917,-182.875 138.125,-183.125 137.375,-183.375C136.625,-183.625 135.833,-183.833 135,-184C134,-184.333 133.125,-184.625 132.375,-184.875C133.708,-186.875 135.333,-187.875 137.25,-187.875Z" fill="#000000" fill-opacity="1">
  </path>
  <path d="M120.375,-171.25C124.125,-169.333 128,-169.208 132,-170.875C132.167,-170.875 132.333,-170.875 132.5,-170.875C132.583,-170.875 132.667,-170.792 132.75,-170.625C132.917,-170.542 133,-170.417 133,-170.25C133,-170.167 132.958,-170.042 132.875,-169.875C132.042,-168.875 131.042,-168.125 129.875,-167.625C128.708,-167.042 127.458,-166.792 126.125,-166.875C124.792,-166.875 123.542,-167.167 122.375,-167.75C121.208,-168.417 120.25,-169.292 119.5,-170.375C119.5,-170.458 119.5,-170.583 119.5,-170.75C119.5,-170.917 119.542,-171.042 119.625,-171.125C119.708,-171.208 119.833,-171.292 120,-171.375C120.167,-171.375 120.292,-171.333 120.375,-171.25Z" fill="#990839" fill-opacity="1">
  </path>
  <path d="M124.875,-183.625L124.875,-183.625C124.958,-183.958 125.125,-184.25 125.375,-184.5C125.625,-184.75 125.917,-184.875 126.25,-184.875C126.583,-184.875 126.875,-184.75 127.125,-184.5C127.375,-184.25 127.542,-183.958 127.625,-183.625L129.5,-176.5C129.583,-176.167 129.625,-175.833 129.625,-175.5C129.542,-175.167 129.417,-174.833 129.25,-174.5C129.083,-174.25 128.833,-174.042 128.5,-173.875C128.25,-173.708 127.958,-173.625 127.625,-173.625L124.75,-173.625C124.5,-173.625 124.208,-173.708 123.875,-173.875C123.625,-174.042 123.417,-174.25 123.25,-174.5C123.083,-174.833 122.958,-175.167 122.875,-175.5C122.792,-175.833 122.792,-176.167 122.875,-176.5Z" fill="#ED9200" fill-opacity="1">
  </path>
  <path d="M112.5,-181.875L121.5,-181.875C122.333,-181.875 122.667,-182.25 122.5,-183C121.917,-186 120.083,-187.5 117,-187.5C113.917,-187.5 112.083,-186 111.5,-183C111.333,-182.25 111.667,-181.875 112.5,-181.875Z" fill="#FFFFFF" fill-opacity="1">
  </path>
  <path d="M139.875,-181.875L130.875,-181.875C130.042,-181.875 129.708,-182.25 129.875,-183C130.458,-186 132.292,-187.5 135.375,-187.5C138.458,-187.5 140.292,-186 140.875,-183C141.042,-182.25 140.708,-181.875 139.875,-181.875Z" fill="#FFFFFF" fill-opacity="1">
  </path>
  <path d="M120.625,-182.875C120.625,-185.125 119.5,-186.25 117.25,-186.25C115.083,-186.25 114,-185.125 114,-182.875C114,-182.542 114.042,-182.208 114.125,-181.875L120.5,-181.875C120.583,-182.208 120.625,-182.542 120.625,-182.875Z" fill="#7D4533" fill-opacity="1">
  </path>
  <path d="M131.75,-182.875C131.75,-185.125 132.833,-186.25 135,-186.25C137.25,-186.25 138.375,-185.125 138.375,-182.875C138.375,-182.542 138.333,-182.208 138.25,-181.875L131.875,-181.875C131.792,-182.208 131.75,-182.542 131.75,-182.875Z" fill="#7D4533" fill-opacity="1">
  </path>
  <path d="M119.5,-182.875C119.5,-184.375 118.75,-185.125 117.25,-185.125C115.75,-185.125 115,-184.375 115,-182.875C115,-182.542 115.083,-182.208 115.25,-181.875L119.375,-181.875C119.458,-182.208 119.5,-182.542 119.5,-182.875Z" fill="#000000" fill-opacity="1">
  </path>
  <path d="M132.75,-182.875C132.75,-184.375 133.5,-185.125 135,-185.125C136.5,-185.125 137.25,-184.375 137.25,-182.875C137.25,-182.542 137.208,-182.208 137.125,-181.875L133,-181.875C132.833,-182.208 132.75,-182.542 132.75,-182.875Z" fill="#000000" fill-opacity="1">
  </path>
  <path d="M116.578,-184.25C116.578,-184.688 116.359,-184.906 115.922,-184.906C115.484,-184.906 115.266,-184.688 115.266,-184.25C115.266,-183.849 115.484,-183.648 115.922,-183.648C116.359,-183.648 116.578,-183.849 116.578,-184.25Z" fill="#FFFFFF" fill-opacity="1">
  </path>
  <path d="M134.883,-184.242C134.883,-184.68 134.664,-184.898 134.227,-184.898C133.826,-184.898 133.625,-184.68 133.625,-184.242C133.625,-183.841 133.826,-183.641 134.227,-183.641C134.664,-183.641 134.883,-183.841 134.883,-184.242Z" fill="#FFFFFF" fill-opacity="1">
  </path>
  <path d="M114.375,-189.75C113.958,-189.25 113.5,-189.25 113,-189.75C112.5,-190.167 112.5,-190.625 113,-191.125C113.667,-191.708 114.583,-192.208 115.75,-192.625C117,-193.125 118.292,-193.375 119.625,-193.375C120.292,-193.375 120.625,-193.042 120.625,-192.375C120.625,-191.708 120.292,-191.375 119.625,-191.375C118.458,-191.375 117.375,-191.208 116.375,-190.875C115.458,-190.542 114.792,-190.167 114.375,-189.75Z" fill="#D37034" fill-opacity="1">
  </path>
  <path d="M140.625,-189.75C141.125,-189.25 141.583,-189.25 142,-189.75C142.5,-190.167 142.5,-190.625 142,-191.125C141.333,-191.708 140.417,-192.208 139.25,-192.625C138,-193.125 136.708,-193.375 135.375,-193.375C134.708,-193.375 134.375,-193.042 134.375,-192.375C134.375,-191.708 134.708,-191.375 135.375,-191.375C136.542,-191.375 137.625,-191.208 138.625,-190.875C139.542,-190.542 140.208,-190.167 140.625,-189.75Z" fill="#D37034" fill-opacity="1">
  </path>
  <path d="M229.875,35.875L256.75,35.875C256.75,35.875 256.813,35.1875 256.938,33.8125C257.063,32.4375 256.667,31.4167 255.75,30.75C251.25,27.6667 248.625,25.5 247.875,24.25C247.125,23 246.75,22.375 246.75,22.375L229.875,22.375Z" fill="#533566" fill-opacity="1">
  </path>
  <path d="M220.875,35.875L194,35.875C194,35.875 193.938,35.1875 193.813,33.8125C193.688,32.4375 194.083,31.4167 195,30.75C199.5,27.6667 202.125,25.5 202.875,24.25C203.625,23 204,22.375 204,22.375L220.875,22.375Z" fill="#533566" fill-opacity="1">
  </path>
  <path d="M239.25,-153.375C240,-152.958 240.771,-152.583 241.563,-152.25C242.354,-151.917 243.208,-151.583 244.125,-151.25C246.708,-150.333 249.417,-149 252.25,-147.25C255.083,-145.5 257.646,-142.375 259.938,-137.875C262.229,-133.375 263.917,-126.5 265,-117.25C266.25,-106.417 266.208,-90.5 264.875,-69.5C264.792,-68.25 264.583,-66.9375 264.25,-65.5625C263.917,-64.1875 263.625,-63.0417 263.375,-62.125C263.292,-61.625 263.25,-61.3333 263.25,-61.25C262.5,-58.0833 261.292,-55.0833 259.625,-52.25C259.042,-51.1667 258.021,-50.8125 256.563,-51.1875C255.104,-51.5625 254.458,-52.4583 254.625,-53.875C254.625,-54.5417 254.854,-56.0208 255.313,-58.3125C255.771,-60.6042 256,-61.75 256,-61.75C256,-61.75 256.104,-62.4792 256.313,-63.9375C256.521,-65.3958 255.917,-66.1667 254.5,-66.25C253.667,-66.3333 253.104,-66.0208 252.813,-65.3125C252.521,-64.6042 252.292,-63.8333 252.125,-63C251.958,-61.8333 251.75,-61.125 251.5,-60.875C251,-60.2083 250.104,-59.9375 248.813,-60.0625C247.521,-60.1875 246.917,-60.625 247,-61.375L247.75,-70C249,-81.9167 249.25,-91.8333 248.5,-99.75C247.75,-107.667 246.563,-113.958 244.938,-118.625C243.313,-123.292 241.729,-126.646 240.188,-128.688C238.646,-130.729 237.75,-131.875 237.5,-132.125C237.5,-132.208 237.479,-132.25 237.438,-132.25C237.396,-132.25 237.375,-132.25 237.375,-132.25L238.375,-141.75Z" fill="#FFC83D" fill-opacity="1">
  </path>
  <path d="M183,-65.625C182.5,-64.5417 181.792,-63.5833 180.875,-62.75C179.958,-61.9167 178.917,-61.2917 177.75,-60.875L175.875,-60.875C173.625,-57.5417 171.604,-56.4792 169.813,-57.6875C168.021,-58.8958 167.042,-60.75 166.875,-63.25C166.792,-63.8333 166.771,-64.625 166.813,-65.625C166.854,-66.625 167,-67.375 167.25,-67.875C169.083,-71.9583 171.104,-76.9583 173.313,-82.875C175.521,-88.7917 177.708,-94.9167 179.875,-101.25C182.042,-107.583 184.042,-113.542 185.875,-119.125C187.708,-124.708 189.188,-129.271 190.313,-132.813C191.438,-136.354 192,-138.167 192,-138.25L206.625,-133.75C206.458,-133.25 205.604,-130.542 204.063,-125.625C202.521,-120.708 200.562,-114.667 198.188,-107.5C195.812,-100.333 193.271,-93 190.563,-85.5C187.854,-78 185.333,-71.375 183,-65.625Z" fill="#FFC83D" fill-opacity="1">
  </path>
  <path d="M182.375,-69.25C184.042,-68.25 184.333,-66.9167 183.25,-65.25L180.625,-61C179.542,-59.25 178.167,-58.9167 176.5,-60C174.833,-61.0833 174.5,-62.4583 175.5,-64.125L178.25,-68.375C179.333,-70.0417 180.708,-70.3333 182.375,-69.25Z" fill="#F59F00" fill-opacity="1">
  </path>
  <path d="M260.25,-64.8945C261.75,-63.6445 261.875,-62.2689 260.625,-60.7676L257.5,-56.7676C256.25,-55.2676 254.875,-55.1426 253.375,-56.3926C251.792,-57.6426 251.625,-59.0176 252.875,-60.5176L256,-64.3945C257.25,-65.9779 258.667,-66.1445 260.25,-64.8945Z" fill="#F59F00" fill-opacity="1">
  </path>
  <path d="M252.375,-90.25L198.375,-90.25L202.875,22.375L220.875,22.375L223.5,-69.75C223.5,-71.3333 224.167,-72.1458 225.5,-72.1875C226.833,-72.2292 227.5,-71.4167 227.5,-69.75L229.875,22.375L247.875,22.375Z" fill="#636363" fill-opacity="1">
  </path>
  <path d="M198.375,-120.875L186,-120.875C185.25,-120.875 184.917,-121.292 185,-122.125C185.417,-126.958 186.833,-131.604 189.25,-136.063C191.667,-140.521 194.708,-144.375 198.375,-147.625C201.958,-151.292 206.083,-154.083 210.75,-156C215.417,-158 220.292,-159 225.375,-159C230.458,-159 235.333,-158 240,-156C244.75,-154.083 248.875,-151.292 252.375,-147.625C256.042,-144.375 259.104,-140.521 261.563,-136.063C264.021,-131.604 265.458,-126.958 265.875,-122.125C265.958,-121.292 265.583,-120.875 264.75,-120.875L252.375,-120.875L252.375,-90.25L198.375,-90.25Z" fill="#00A6ED" fill-opacity="1">
  </path>
  <path d="M233.75,-163.375L233.75,-163.375L233.75,-158C233.75,-155.75 233,-153.833 231.5,-152.25C229.917,-150.667 228.042,-149.875 225.875,-149.875L225.875,-149.875C223.708,-149.875 221.875,-150.667 220.375,-152.25C218.792,-153.833 218,-155.75 218,-158L218,-163.375Z" fill="#FCB100" fill-opacity="1">
  </path>
  <path d="M236.639,-182.635C236.639,-183.88 236.942,-185.013 237.55,-186.035C238.157,-187.057 238.972,-187.872 239.995,-188.48C241.018,-189.089 242.152,-189.393 243.396,-189.393C244.64,-189.393 245.773,-189.089 246.796,-188.48C247.819,-187.872 248.634,-187.057 249.241,-186.035C249.849,-185.013 250.152,-183.88 250.152,-182.635C250.152,-181.391 249.849,-180.258 249.241,-179.235C248.634,-178.213 247.819,-177.397 246.796,-176.79C245.773,-176.183 244.64,-175.879 243.396,-175.879C242.152,-175.879 241.018,-176.183 239.995,-176.79C238.972,-177.397 238.157,-178.213 237.55,-179.235C236.942,-180.258 236.639,-181.391 236.639,-182.635Z" fill="#FDBB11" fill-opacity="1">
  </path>
  <path d="M200.514,-182.635C200.514,-183.88 200.817,-185.013 201.425,-186.035C202.032,-187.057 202.847,-187.872 203.87,-188.48C204.893,-189.089 206.027,-189.393 207.271,-189.393C208.515,-189.393 209.648,-189.089 210.671,-188.48C211.694,-187.872 212.509,-187.057 213.116,-186.035C213.724,-185.013 214.027,-183.88 214.027,-182.635C214.027,-181.391 213.724,-180.258 213.116,-179.235C212.509,-178.213 211.694,-177.397 210.671,-176.79C209.648,-176.183 208.515,-175.879 207.271,-175.879C206.027,-175.879 204.893,-176.183 203.87,-176.79C202.847,-177.397 202.032,-178.213 201.425,-179.235C200.817,-180.258 200.514,-181.391 200.514,-182.635Z" fill="#FDBB11" fill-opacity="1">
  </path>
  <path d="M204.875,-207.375C201.458,-205.792 200.083,-203.125 200.75,-199.375L202.875,-187.625C203.125,-186.292 203.917,-185.583 205.25,-185.5C205.25,-185.5 205.208,-186.146 205.125,-187.438C205.042,-188.729 204.958,-189.917 204.875,-191C204.792,-192.167 205.208,-193.125 206.125,-193.875L206.875,-194.625C207.958,-195.542 208.5,-196.667 208.5,-198L208.5,-201.25C208.5,-202.25 209,-202.917 210,-203.25C211.333,-203.5 213.292,-203.833 215.875,-204.25C218.458,-204.667 221.625,-204.875 225.375,-204.875C229.042,-204.875 232.188,-204.688 234.813,-204.313C237.438,-203.938 239.375,-203.583 240.625,-203.25C241.708,-203 242.25,-202.333 242.25,-201.25L242.25,-198C242.25,-196.667 242.75,-195.542 243.75,-194.625L244.5,-194C245.417,-193.167 245.833,-192.167 245.75,-191C245.667,-189.917 245.583,-188.729 245.5,-187.438C245.417,-186.146 245.375,-185.5 245.375,-185.5C246.792,-185.5 247.583,-186.208 247.75,-187.625L250,-199.375C250.75,-203.042 249.375,-205.708 245.875,-207.375L244.25,-208.25C243.083,-208.833 242.042,-209.542 241.125,-210.375L237.125,-214.25C234.542,-216.667 231.708,-217.125 228.625,-215.625C226.458,-214.875 224.292,-214.875 222.125,-215.625C218.625,-216.792 215.542,-216.083 212.875,-213.5L209.625,-210.375C208.708,-209.542 207.667,-208.833 206.5,-208.25Z" fill="#F1A11E" fill-opacity="1">
  </path>
  <path d="M245.75,-185.625L244.5,-169.25C244.167,-165.917 242.792,-163.188 240.375,-161.063C237.958,-158.938 235.083,-157.875 231.75,-157.875L219,-157.875C215.667,-157.875 212.792,-158.938 210.375,-161.063C207.958,-163.188 206.583,-165.917 206.25,-169.25L205,-185.625C205.083,-185.625 205.167,-185.583 205.25,-185.5C205.25,-185.5 205.208,-186.146 205.125,-187.438C205.042,-188.729 204.958,-189.917 204.875,-191C204.792,-192.167 205.208,-193.125 206.125,-193.875L206.875,-194.625C207.875,-195.542 208.375,-196.667 208.375,-198L208.375,-201.25C208.375,-202.25 208.917,-202.917 210,-203.25C211.333,-203.5 213.292,-203.833 215.875,-204.25C218.458,-204.667 221.625,-204.875 225.375,-204.875C229.042,-204.875 232.188,-204.688 234.813,-204.313C237.438,-203.938 239.375,-203.583 240.625,-203.25C241.708,-203 242.25,-202.333 242.25,-201.25L242.25,-198C242.25,-196.667 242.75,-195.542 243.75,-194.625L244.5,-194C245.417,-193.167 245.833,-192.167 245.75,-191C245.667,-189.917 245.583,-188.729 245.5,-187.438C245.417,-186.146 245.375,-185.5 245.375,-185.5C245.458,-185.5 245.583,-185.542 245.75,-185.625Z" fill="#FFC83D" fill-opacity="1">
  </path>
  <path d="M210.75,-189.875C211.583,-188.875 212.542,-188.75 213.625,-189.5L213.75,-189.5C213.833,-189.583 213.917,-189.667 214,-189.75C214.25,-189.833 214.583,-189.958 215,-190.125C216.167,-190.625 217.375,-190.792 218.625,-190.625C220.042,-190.458 220.833,-191.042 221,-192.375C221.167,-193.792 220.542,-194.542 219.125,-194.625C217.958,-194.792 216.896,-194.792 215.938,-194.625C214.979,-194.458 214.125,-194.25 213.375,-194C212.875,-193.75 212.333,-193.5 211.75,-193.25C211.667,-193.167 211.542,-193.083 211.375,-193C211.292,-192.917 211.25,-192.875 211.25,-192.875L211.125,-192.875L211.125,-192.875L211.125,-192.75C209.958,-192 209.833,-191.042 210.75,-189.875ZM240.25,-192.75L239.625,-193.25C239.042,-193.5 238.5,-193.75 238,-194C237.333,-194.25 236.5,-194.458 235.5,-194.625C234.5,-194.792 233.417,-194.792 232.25,-194.625C230.917,-194.542 230.292,-193.792 230.375,-192.375C230.542,-191.042 231.333,-190.458 232.75,-190.625C234,-190.792 235.25,-190.625 236.5,-190.125C236.833,-189.958 237.167,-189.833 237.5,-189.75C237.333,-189.833 237.417,-189.75 237.75,-189.5L237.75,-189.5C238.833,-188.75 239.833,-188.875 240.75,-189.875C241.583,-191.042 241.417,-192 240.25,-192.75Z" fill="#D37034" fill-opacity="1">
  </path>
  <path d="M231.25,-171.25C227.417,-169.333 223.5,-169.208 219.5,-170.875C219.417,-170.875 219.292,-170.875 219.125,-170.875C218.958,-170.875 218.833,-170.792 218.75,-170.625C218.667,-170.542 218.625,-170.417 218.625,-170.25C218.625,-170.167 218.667,-170.042 218.75,-169.875C219.5,-168.875 220.458,-168.125 221.625,-167.625C222.875,-167.042 224.125,-166.792 225.375,-166.875C226.708,-166.875 227.958,-167.167 229.125,-167.75C230.292,-168.417 231.25,-169.292 232,-170.375C232.083,-170.458 232.125,-170.583 232.125,-170.75C232.125,-170.917 232.083,-171.042 232,-171.125C231.833,-171.208 231.708,-171.292 231.625,-171.375C231.458,-171.375 231.333,-171.333 231.25,-171.25Z" fill="#990839" fill-opacity="1">
  </path>
  <path d="M226.75,-183.625L226.75,-183.625C226.667,-183.958 226.5,-184.25 226.25,-184.5C225.917,-184.75 225.625,-184.875 225.375,-184.875C225.042,-184.875 224.75,-184.75 224.5,-184.5C224.167,-184.25 223.958,-183.958 223.875,-183.625L222.125,-176.5C221.958,-176.167 221.917,-175.833 222,-175.5C222.083,-175.083 222.208,-174.75 222.375,-174.5C222.542,-174.25 222.75,-174.042 223,-173.875C223.333,-173.708 223.625,-173.625 223.875,-173.625L226.875,-173.625C227.125,-173.625 227.375,-173.708 227.625,-173.875C227.875,-174.042 228.125,-174.25 228.375,-174.5C228.542,-174.75 228.667,-175.083 228.75,-175.5C228.75,-175.833 228.708,-176.167 228.625,-176.5Z" fill="#ED9200" fill-opacity="1">
  </path>
  <path d="M239.125,-182.875L230,-182.875C229.25,-182.875 228.958,-183.208 229.125,-183.875C229.625,-186.958 231.458,-188.5 234.625,-188.5C237.708,-188.5 239.542,-186.958 240.125,-183.875C240.292,-183.208 239.958,-182.875 239.125,-182.875Z" fill="#FFFFFF" fill-opacity="1">
  </path>
  <path d="M211.625,-182.875L220.75,-182.875C221.583,-182.875 221.917,-183.208 221.75,-183.875C221.167,-186.958 219.333,-188.5 216.25,-188.5C213.167,-188.5 211.292,-186.958 210.625,-183.875C210.542,-183.208 210.875,-182.875 211.625,-182.875Z" fill="#FFFFFF" fill-opacity="1">
  </path>
  <path d="M231,-183.75C231,-186 232.125,-187.125 234.375,-187.125C236.542,-187.125 237.625,-186 237.625,-183.75C237.625,-183.417 237.583,-183.083 237.5,-182.75L231.125,-182.75C231.042,-183.083 231,-183.417 231,-183.75Z" fill="#7D4533" fill-opacity="1">
  </path>
  <path d="M219.875,-183.75C219.875,-186 218.75,-187.125 216.5,-187.125C214.333,-187.125 213.25,-186 213.25,-183.75C213.25,-183.417 213.292,-183.083 213.375,-182.75L219.75,-182.75C219.833,-183.083 219.875,-183.417 219.875,-183.75Z" fill="#7D4533" fill-opacity="1">
  </path>
  <path d="M232,-183.75C232,-185.25 232.75,-186 234.25,-186C235.75,-186 236.5,-185.25 236.5,-183.75C236.5,-183.417 236.458,-183.125 236.375,-182.875L232.25,-182.875C232.083,-183.125 232,-183.417 232,-183.75Z" fill="#000000" fill-opacity="1">
  </path>
  <path d="M218.75,-183.75C218.75,-185.25 218,-186 216.5,-186C215,-186 214.25,-185.25 214.25,-183.75C214.25,-183.417 214.292,-183.125 214.375,-182.875L218.5,-182.875C218.667,-183.125 218.75,-183.417 218.75,-183.75Z" fill="#000000" fill-opacity="1">
  </path>
  <path d="M235.117,-185.117C235.117,-185.555 235.336,-185.773 235.773,-185.773C236.174,-185.773 236.375,-185.555 236.375,-185.117C236.375,-184.716 236.174,-184.516 235.773,-184.516C235.336,-184.516 235.117,-184.716 235.117,-185.117Z" fill="#FFFFFF" fill-opacity="1">
  </path>
  <path d="M216.693,-185.098C216.693,-185.215 216.722,-185.321 216.779,-185.417C216.837,-185.513 216.913,-185.589 217.009,-185.646C217.104,-185.704 217.21,-185.732 217.326,-185.732C217.443,-185.732 217.55,-185.704 217.646,-185.646C217.741,-185.589 217.818,-185.513 217.875,-185.417C217.932,-185.321 217.961,-185.215 217.961,-185.098C217.961,-184.982 217.932,-184.876 217.875,-184.78C217.818,-184.685 217.741,-184.608 217.646,-184.551C217.55,-184.493 217.443,-184.465 217.326,-184.465C217.21,-184.465 217.104,-184.493 217.009,-184.551C216.913,-184.608 216.837,-184.685 216.779,-184.78C216.722,-184.876 216.693,-184.982 216.693,-185.098Z" fill="#FFFFFF" fill-opacity="1">
  </path>
</svg>