<!-- Exported by Character Map UWP -->
<svg height="100%" viewBox="49 -208 253 244" width="100%" xmlns="http://www.w3.org/2000/svg" xmlns:xlink="http://www.w3.org/1999/xlink">
  <path d="M77.125,35C71.7083,36.4167 66.7083,35.9583 62.125,33.625C57.5417,31.2917 54.0833,27.8333 51.75,23.25C49.4167,18.6667 49,13.6667 50.5,8.25L53.5,-3.375L61.375,-7.75L60.125,-28L67.25,-54.5L75.125,-59.375L74.25,-80.5L81.125,-106.5C82.625,-112 85.5208,-116.167 89.8125,-119C94.1042,-121.833 98.8333,-123.104 104,-122.813C109.167,-122.521 113.75,-120.375 117.75,-116.375L201.75,-32.375C205.667,-28.375 207.771,-23.7917 208.063,-18.625C208.354,-13.4583 207.083,-8.70833 204.25,-4.375C201.417,-0.041667 197.292,2.83333 191.875,4.25L168.5,10.5L146.25,9.625L140.75,17.875L116.875,24.375L93.875,23.75L90.375,31.375Z" fill="#F9C23C" fill-opacity="1">
  </path>
  <path d="M101.875,-8.75C113.125,1.75 126.083,10.6667 140.75,18L168.875,10.375C157.875,6.375 147.875,1.75 138.875,-3.5C129.875,-8.75 121.667,-14.875 114.25,-21.875C98.8333,-36.2917 85.4583,-55.7917 74.125,-80.375L67.125,-54.25C77.2083,-36.0833 88.7917,-20.9167 101.875,-8.75Z" fill="#3F5FFF" fill-opacity="1">
  </path>
  <path d="M70.25,16.875C76.0833,22.375 82.75,27.25 90.25,31.5L117.125,24.25C102.958,18.8333 91.4167,11.9583 82.5,3.625C73.9167,-4.375 66.5,-15.0417 60.25,-28.375L53.5,-3.25C58.5,4.33333 64.0833,11.0417 70.25,16.875Z" fill="#3F5FFF" fill-opacity="1">
  </path>
  <path d="M203.75,-3C199.583,1.16667 193.188,2.39583 184.563,0.6875C175.938,-1.02083 166.229,-5.22917 155.438,-11.9375C144.646,-18.6458 133.958,-27.2917 123.375,-37.875C112.708,-48.5417 104.042,-59.2708 97.375,-70.0625C90.7083,-80.8542 86.5,-90.5625 84.75,-99.1875C83,-107.812 84.2083,-114.25 88.375,-118.5C92.625,-122.667 99.0625,-123.875 107.688,-122.125C116.313,-120.375 126,-116.167 136.75,-109.5C147.5,-102.833 158.208,-94.1667 168.875,-83.5C179.458,-72.8333 188.104,-62.125 194.813,-51.375C201.521,-40.625 205.75,-30.9167 207.5,-22.25C209.25,-13.5833 208,-7.16667 203.75,-3Z" fill="#6D4534" fill-opacity="1">
  </path>
  <path d="M136.25,-168.875C134.917,-171.458 132.854,-173.188 130.063,-174.063C127.271,-174.938 124.542,-174.667 121.875,-173.25C119.292,-171.917 117.583,-169.854 116.75,-167.063C115.917,-164.271 116.208,-161.542 117.625,-158.875C126.375,-142.542 128,-125.458 122.5,-107.625C117.833,-92.625 109.083,-80.75 96.25,-72C99.8333,-66.0833 103.875,-60.2917 108.375,-54.625C125.292,-66.2083 136.75,-81.7917 142.75,-101.375C146.167,-112.708 147.333,-124.188 146.25,-135.813C145.167,-147.438 141.833,-158.458 136.25,-168.875Z" fill="#F70A8D" fill-opacity="1">
  </path>
  <path d="M231.125,-83.875C229.125,-82.2083 226.833,-81.5417 224.25,-81.875C221.667,-82.2083 219.542,-83.375 217.875,-85.375C216.292,-87.4583 215.646,-89.7917 215.938,-92.375C216.229,-94.9583 217.417,-97.0417 219.5,-98.625C230.667,-107.542 243.083,-112.938 256.75,-114.813C270.417,-116.688 283.458,-115.292 295.875,-110.625C298.375,-109.708 300.167,-108.063 301.25,-105.688C302.333,-103.313 302.417,-100.917 301.5,-98.5C300.583,-96.0833 298.938,-94.3333 296.563,-93.25C294.188,-92.1667 291.792,-92.0417 289.375,-92.875C279.875,-96.4583 269.938,-97.5208 259.563,-96.0625C249.188,-94.6042 239.708,-90.5417 231.125,-83.875Z" fill="#F70A8D" fill-opacity="1">
  </path>
  <path d="M85.7637,-147.061C84.3275,-147.061 82.9782,-147.33 81.7158,-147.869C80.4534,-148.408 79.3434,-149.156 78.3857,-150.113C77.4281,-151.07 76.6768,-152.18 76.1318,-153.443C75.5869,-154.706 75.3145,-156.062 75.3145,-157.51C75.3145,-158.946 75.5869,-160.295 76.1318,-161.558C76.6768,-162.82 77.4281,-163.933 78.3857,-164.896C79.3434,-165.86 80.4534,-166.611 81.7158,-167.149C82.9782,-167.688 84.3275,-167.957 85.7637,-167.957C87.2116,-167.957 88.5667,-167.688 89.8291,-167.149C91.0915,-166.611 92.2015,-165.86 93.1592,-164.896C94.1169,-163.933 94.8678,-162.82 95.4121,-161.558C95.9564,-160.295 96.2285,-158.946 96.2285,-157.51C96.2285,-156.062 95.9564,-154.706 95.4121,-153.443C94.8678,-152.18 94.1169,-151.07 93.1592,-150.113C92.2015,-149.156 91.0915,-148.408 89.8291,-147.869C88.5667,-147.33 87.2116,-147.061 85.7637,-147.061Z" fill="#F70A8D" fill-opacity="1">
  </path>
  <path d="M267.064,-157.611C267.064,-159.048 266.795,-160.397 266.256,-161.659C265.717,-162.922 264.969,-164.032 264.012,-164.989C263.055,-165.947 261.945,-166.698 260.682,-167.243C259.419,-167.788 258.063,-168.061 256.615,-168.061C255.179,-168.061 253.83,-167.788 252.567,-167.243C251.305,-166.698 250.192,-165.947 249.229,-164.989C248.265,-164.032 247.514,-162.922 246.976,-161.659C246.437,-160.397 246.168,-159.048 246.168,-157.611C246.168,-156.163 246.437,-154.808 246.976,-153.546C247.514,-152.284 248.265,-151.173 249.229,-150.216C250.192,-149.258 251.305,-148.507 252.567,-147.963C253.83,-147.419 255.179,-147.146 256.615,-147.146C258.063,-147.146 259.419,-147.419 260.682,-147.963C261.945,-148.507 263.055,-149.258 264.012,-150.216C264.969,-151.173 265.717,-152.284 266.256,-153.546C266.795,-154.808 267.064,-156.163 267.064,-157.611Z" fill="#F70A8D" fill-opacity="1">
  </path>
  <path d="M144.141,-198.752C144.141,-199.939 143.918,-201.055 143.473,-202.1C143.027,-203.144 142.409,-204.062 141.617,-204.854C140.826,-205.647 139.908,-206.268 138.863,-206.718C137.819,-207.168 136.698,-207.393 135.5,-207.393C134.313,-207.393 133.197,-207.168 132.152,-206.718C131.108,-206.268 130.188,-205.647 129.391,-204.854C128.594,-204.062 127.973,-203.144 127.527,-202.1C127.082,-201.055 126.859,-199.939 126.859,-198.752C126.859,-197.554 127.082,-196.433 127.527,-195.39C127.973,-194.346 128.594,-193.428 129.391,-192.636C130.188,-191.843 131.108,-191.222 132.152,-190.772C133.197,-190.323 134.313,-190.098 135.5,-190.098C136.698,-190.098 137.819,-190.323 138.863,-190.772C139.908,-191.222 140.826,-191.843 141.617,-192.636C142.409,-193.428 143.027,-194.346 143.473,-195.39C143.918,-196.433 144.141,-197.554 144.141,-198.752Z" fill="#F9C23C" fill-opacity="1">
  </path>
  <path d="M261.225,-14.5117C261.225,-15.7135 260.999,-16.8424 260.549,-17.8984C260.098,-18.9544 259.473,-19.8828 258.672,-20.6836C257.871,-21.4844 256.943,-22.1123 255.887,-22.5674C254.831,-23.0225 253.697,-23.25 252.486,-23.25C251.285,-23.25 250.156,-23.0225 249.1,-22.5674C248.044,-22.1123 247.113,-21.4844 246.307,-20.6836C245.501,-19.8828 244.873,-18.9544 244.423,-17.8984C243.973,-16.8424 243.748,-15.7135 243.748,-14.5117C243.748,-13.3008 243.973,-12.1673 244.423,-11.1113C244.873,-10.0553 245.501,-9.12695 246.307,-8.32617C247.113,-7.52539 248.044,-6.89713 249.1,-6.44141C250.156,-5.98568 251.285,-5.75781 252.486,-5.75781C253.697,-5.75781 254.831,-5.98568 255.887,-6.44141C256.943,-6.89713 257.871,-7.52539 258.672,-8.32617C259.473,-9.12695 260.098,-10.0553 260.549,-11.1113C260.999,-12.1673 261.225,-13.3008 261.225,-14.5117Z" fill="#F9C23C" fill-opacity="1">
  </path>
  <path d="M226.5,-198.125C228.667,-196.292 229.667,-193.958 229.5,-191.125C229.25,-186.375 228.312,-181.188 226.688,-175.563C225.062,-169.938 223.396,-164.875 221.688,-160.375C219.979,-155.875 218.833,-152.958 218.25,-151.625L218.125,-151.375C215.292,-144.292 211.542,-137.833 206.875,-132C207.125,-124.417 206.25,-116.958 204.25,-109.625C203.583,-107.292 202.208,-105.521 200.125,-104.313C198.042,-103.104 195.792,-102.792 193.375,-103.375C191.042,-104.042 189.271,-105.438 188.063,-107.563C186.854,-109.688 186.583,-111.917 187.25,-114.25C187.583,-115.5 187.875,-116.708 188.125,-117.875C183.875,-116.792 179.458,-116.833 174.875,-118C174.292,-118.083 173.667,-118.25 173,-118.5C166.833,-120.5 162.333,-124.375 159.5,-130.125C156.583,-135.875 156.167,-141.833 158.25,-148C160.25,-154.167 164.125,-158.688 169.875,-161.563C175.625,-164.438 181.542,-164.833 187.625,-162.75L188,-162.625C191.583,-161.458 194.625,-159.75 197.125,-157.5C198.208,-156.583 199.208,-155.542 200.125,-154.375C200.708,-155.458 201.25,-156.625 201.75,-157.875C201.75,-157.875 201.75,-157.917 201.75,-158C201.75,-158.083 201.75,-158.125 201.75,-158.125C202.667,-160.208 203.875,-163.292 205.375,-167.375C206.875,-171.458 208.292,-175.771 209.625,-180.313C210.958,-184.854 211.708,-188.75 211.875,-192C212.042,-194.5 213.042,-196.542 214.875,-198.125C216.708,-199.708 218.833,-200.458 221.25,-200.375C223.167,-200.292 224.917,-199.542 226.5,-198.125ZM182.5,-146L182.25,-146.125C180.75,-146.625 179.292,-146.521 177.875,-145.813C176.458,-145.104 175.5,-144 175,-142.5C174.5,-141 174.625,-139.542 175.375,-138.125C175.875,-136.958 176.708,-136.083 177.875,-135.5C178.125,-135.5 178.458,-135.417 178.875,-135.25C180.125,-134.833 181.521,-134.688 183.063,-134.813C184.604,-134.938 186.458,-136.042 188.625,-138.125C188.125,-140.958 187.292,-142.875 186.125,-143.875C184.958,-144.875 183.75,-145.583 182.5,-146Z" fill="#00A6ED" fill-opacity="1">
  </path>
  <path d="M196.25,-70.75C183.583,-67.25 171.938,-61.875 161.313,-54.625C150.688,-47.375 141.5,-38.625 133.75,-28.375C136.5,-25.9583 139.292,-23.6667 142.125,-21.5C144.958,-19.3333 147.75,-17.2917 150.5,-15.375C163.75,-32.875 180.917,-44.5417 202,-50.375C214.583,-53.875 227.292,-54.8333 240.125,-53.25C252.958,-51.6667 265.083,-47.7083 276.5,-41.375C279.083,-39.875 281.792,-39.5208 284.625,-40.3125C287.458,-41.1042 289.583,-42.7917 291,-45.375C292.417,-47.875 292.729,-50.5417 291.938,-53.375C291.146,-56.2083 289.458,-58.3333 286.875,-59.75C272.958,-67.5833 258.208,-72.4583 242.625,-74.375C227.042,-76.2917 211.583,-75.0833 196.25,-70.75Z" fill="#00A6ED" fill-opacity="1">
  </path>
  <path d="M181.385,-81.3652C181.385,-82.7884 181.118,-84.126 180.584,-85.3779C180.05,-86.6299 179.309,-87.7305 178.359,-88.6797C177.41,-89.6289 176.31,-90.3737 175.058,-90.9141C173.806,-91.4544 172.462,-91.7246 171.025,-91.7246C169.602,-91.7246 168.265,-91.4544 167.013,-90.9141C165.761,-90.3737 164.657,-89.6289 163.702,-88.6797C162.747,-87.7305 162.002,-86.6299 161.468,-85.3779C160.933,-84.126 160.666,-82.7884 160.666,-81.3652C160.666,-79.929 160.933,-78.585 161.468,-77.333C162.002,-76.0811 162.747,-74.9805 163.702,-74.0313C164.657,-73.082 165.761,-72.3376 167.013,-71.7979C168.265,-71.2581 169.602,-70.9883 171.025,-70.9883C172.462,-70.9883 173.806,-71.2581 175.058,-71.7979C176.31,-72.3376 177.41,-73.082 178.359,-74.0313C179.309,-74.9805 180.05,-76.0811 180.584,-77.333C181.118,-78.585 181.385,-79.929 181.385,-81.3652Z" fill="#00A6ED" fill-opacity="1">
  </path>
</svg>