<!-- Exported by Character Map UWP -->
<svg height="100%" viewBox="58 -217 235 253" width="100%" xmlns="http://www.w3.org/2000/svg" xmlns:xlink="http://www.w3.org/1999/xlink">
  <path d="M255.875,35.875C261.125,35.875 265.604,34.0417 269.313,30.375C273.021,26.7083 274.875,22.2917 274.875,17.125L274.875,-99.25L174.625,-126.875L76.625,-99.25L76.625,17.125C76.625,22.2917 78.4792,26.7083 82.1875,30.375C85.8958,34.0417 90.4167,35.875 95.75,35.875Z" fill="#FCD53F" fill-opacity="1">
  </path>
  <path d="M274.875,-181.75C274.875,-176.417 273,-171.854 269.25,-168.063C265.5,-164.271 260.958,-162.375 255.625,-162.375L175.75,-142.75L96,-162.375C90.6667,-162.375 86.1042,-164.25 82.3125,-168C78.5208,-171.75 76.625,-176.333 76.625,-181.75C76.625,-189.333 78.6042,-195.875 82.5625,-201.375C86.5208,-206.875 91.5417,-210.937 97.625,-213.563C103.708,-216.187 110.083,-217.021 116.75,-216.063C123.417,-215.104 129.458,-211.958 134.875,-206.625L175.75,-167L216.625,-206.625C222.042,-211.875 228.083,-214.979 234.75,-215.938C241.417,-216.896 247.813,-216.083 253.938,-213.5C260.063,-210.917 265.083,-206.875 269,-201.375C272.917,-195.875 274.875,-189.333 274.875,-181.75Z" fill="#F8312F" fill-opacity="1">
  </path>
  <path d="M280.875,-162.375C284.208,-162.375 287.042,-161.188 289.375,-158.813C291.708,-156.438 292.875,-153.583 292.875,-150.25L292.875,-111.375C292.875,-108.042 291.708,-105.188 289.375,-102.813C287.042,-100.438 284.208,-99.25 280.875,-99.25L70.75,-99.25C67.4167,-99.25 64.5625,-100.438 62.1875,-102.813C59.8125,-105.188 58.625,-108.042 58.625,-111.375L58.625,-150.25C58.625,-153.583 59.8125,-156.438 62.1875,-158.813C64.5625,-161.188 67.4167,-162.375 70.75,-162.375Z" fill="#FFB02E" fill-opacity="1">
  </path>
  <path d="M175.875,-207.375C183.292,-207.375 189.646,-204.687 194.938,-199.313C200.229,-193.938 202.833,-187.417 202.75,-179.75L202.75,35.875L148.75,35.875L148.75,-179.75C148.75,-187.417 151.396,-193.938 156.688,-199.313C161.979,-204.687 168.375,-207.375 175.875,-207.375Z" fill="#CA0B4A" fill-opacity="1">
  </path>
</svg>