<!-- Exported by Character Map UWP -->
<svg height="100%" viewBox="49 -199 253 229" width="100%" xmlns="http://www.w3.org/2000/svg" xmlns:xlink="http://www.w3.org/1999/xlink">
  <path d="M76.625,17.75L76.625,5.375L101.375,5.375L101.375,17.75C101.375,21.1667 100.167,24.0833 97.75,26.5C95.3333,28.9167 92.4167,30.125 89,30.125C85.5833,30.125 82.6667,28.9167 80.25,26.5C77.8333,24.0833 76.625,21.1667 76.625,17.75ZM249.25,17.75L249.25,5.375L273.875,5.375L273.875,17.75C273.875,21.1667 272.667,24.0833 270.25,26.5C267.833,28.9167 264.917,30.125 261.5,30.125C258.083,30.125 255.188,28.9167 252.813,26.5C250.438,24.0833 249.25,21.1667 249.25,17.75Z" fill="#212121" fill-opacity="1">
  </path>
  <path d="M274.875,-189.375C274.875,-191.875 274,-194 272.25,-195.75C270.5,-197.5 268.375,-198.375 265.875,-198.375C263.792,-198.375 261.938,-197.75 260.313,-196.5C258.688,-195.25 257.625,-193.625 257.125,-191.625L101.625,-161.125L103.375,-152.25L259.5,-183C261.25,-181.25 263.375,-180.375 265.875,-180.375C268.375,-180.375 270.5,-181.25 272.25,-183C274,-184.75 274.875,-186.875 274.875,-189.375Z" fill="#9B9B9B" fill-opacity="1">
  </path>
  <path d="M93.2188,-127.682C90.6836,-127.682 88.3076,-128.156 86.0908,-129.104C83.874,-130.053 81.9225,-131.37 80.2363,-133.057C78.5501,-134.743 77.2292,-136.698 76.2734,-138.921C75.3177,-141.144 74.8398,-143.524 74.8398,-146.061C74.8398,-148.596 75.3177,-150.975 76.2734,-153.199C77.2292,-155.423 78.5501,-157.374 80.2363,-159.053C81.9225,-160.731 83.874,-162.048 86.0908,-163.005C88.3076,-163.961 90.6836,-164.439 93.2188,-164.439C95.7539,-164.439 98.1335,-163.961 100.357,-163.005C102.581,-162.048 104.536,-160.731 106.222,-159.053C107.907,-157.374 109.225,-155.423 110.174,-153.199C111.123,-150.975 111.598,-148.596 111.598,-146.061C111.598,-143.524 111.123,-141.144 110.174,-138.921C109.225,-136.698 107.907,-134.743 106.222,-133.057C104.536,-131.37 102.581,-130.053 100.357,-129.104C98.1335,-128.156 95.7539,-127.682 93.2188,-127.682Z" fill="#D3D3D3" fill-opacity="1">
  </path>
  <path d="M278.25,-146C284.833,-146 290.417,-143.708 295,-139.125C299.583,-134.542 301.917,-128.958 302,-122.375L302,-12C302,-5.41667 299.688,0.1875 295.063,4.8125C290.438,9.4375 284.833,11.75 278.25,11.75L73.375,11.75C66.7917,11.75 61.1875,9.4375 56.5625,4.8125C51.9375,0.1875 49.625,-5.41667 49.625,-12L49.625,-122.375C49.625,-128.875 51.9375,-134.438 56.5625,-139.063C61.1875,-143.688 66.7917,-146 73.375,-146Z" fill="#9B9B9B" fill-opacity="1">
  </path>
  <path d="M268.75,-119.5C271.75,-119.5 274.313,-118.438 276.438,-116.313C278.563,-114.188 279.625,-111.625 279.625,-108.625L279.625,-65.125C279.625,-62.125 278.563,-59.5625 276.438,-57.4375C274.313,-55.3125 271.75,-54.25 268.75,-54.25L197.875,-54.25C194.875,-54.25 192.313,-55.3125 190.188,-57.4375C188.063,-59.5625 187,-62.125 187,-65.125L187,-108.625C187,-111.625 188.063,-114.188 190.188,-116.313C192.313,-118.438 194.875,-119.5 197.875,-119.5Z" fill="#83CBFF" fill-opacity="1">
  </path>
  <path d="M210.75,-91.75C212.75,-91.75 214.437,-91.0625 215.813,-89.6875C217.187,-88.3125 217.917,-86.625 218,-84.625L218,-54.375L203.625,-54.375L203.625,-84.625C203.625,-86.625 204.312,-88.3125 205.688,-89.6875C207.062,-91.0625 208.75,-91.75 210.75,-91.75Z" fill="#F8312F" fill-opacity="1">
  </path>
  <path d="M165.25,-107.25L78.25,-107.25C76.5833,-107.25 75.1458,-107.854 73.9375,-109.063C72.7292,-110.271 72.125,-111.708 72.125,-113.375C72.125,-115.042 72.7292,-116.479 73.9375,-117.688C75.1458,-118.896 76.5833,-119.5 78.25,-119.5L165.25,-119.5C166.917,-119.5 168.354,-118.896 169.563,-117.688C170.771,-116.479 171.375,-115.042 171.375,-113.375C171.375,-111.625 170.771,-110.167 169.563,-109C168.354,-107.833 166.917,-107.25 165.25,-107.25ZM171.375,-90.625C171.375,-92.2917 170.771,-93.7292 169.563,-94.9375C168.354,-96.1458 166.917,-96.75 165.25,-96.75L78.25,-96.75C76.5833,-96.75 75.1458,-96.1458 73.9375,-94.9375C72.7292,-93.7292 72.125,-92.2917 72.125,-90.625C72.125,-88.9583 72.7292,-87.5208 73.9375,-86.3125C75.1458,-85.1042 76.5833,-84.5 78.25,-84.5L165.25,-84.5C166.917,-84.5 168.354,-85.0833 169.563,-86.25C170.771,-87.4167 171.375,-88.875 171.375,-90.625ZM165.25,-61.875L78.25,-61.875C76.5833,-61.875 75.1458,-62.4792 73.9375,-63.6875C72.7292,-64.8958 72.125,-66.3333 72.125,-68C72.125,-69.75 72.7292,-71.2083 73.9375,-72.375C75.1458,-73.5417 76.5833,-74.125 78.25,-74.125L165.25,-74.125C166.917,-74.125 168.354,-73.5208 169.563,-72.3125C170.771,-71.1042 171.375,-69.6667 171.375,-68C171.375,-66.25 170.771,-64.7917 169.563,-63.625C168.354,-62.4583 166.917,-61.875 165.25,-61.875ZM171.375,-45.25C171.375,-47 170.771,-48.4792 169.563,-49.6875C168.354,-50.8958 166.917,-51.4583 165.25,-51.375L78.25,-51.375C76.5833,-51.375 75.1458,-50.7917 73.9375,-49.625C72.7292,-48.4583 72.125,-47 72.125,-45.25C72.125,-43.5833 72.7292,-42.1458 73.9375,-40.9375C75.1458,-39.7292 76.5833,-39.125 78.25,-39.125L165.25,-39.125C166.917,-39.125 168.354,-39.7292 169.563,-40.9375C170.771,-42.1458 171.375,-43.5833 171.375,-45.25ZM171.375,-22.625C171.375,-24.2917 170.771,-25.7292 169.563,-26.9375C168.354,-28.1458 166.917,-28.75 165.25,-28.75L78.25,-28.75C76.5833,-28.75 75.1458,-28.1667 73.9375,-27C72.7292,-25.8333 72.125,-24.375 72.125,-22.625C72.125,-20.9583 72.7292,-19.5208 73.9375,-18.3125C75.1458,-17.1042 76.5833,-16.5 78.25,-16.5L165.25,-16.5C166.917,-16.5 168.354,-17.1042 169.563,-18.3125C170.771,-19.5208 171.375,-20.9583 171.375,-22.625Z" fill="#212121" fill-opacity="1">
  </path>
  <path d="M221.125,-27.875C221.125,-31.0417 220.042,-33.7083 217.875,-35.875C215.708,-38.0417 213.042,-39.125 209.875,-39.125C206.792,-39.125 204.146,-38.0417 201.938,-35.875C199.729,-33.7083 198.625,-31.0417 198.625,-27.875C198.625,-24.7917 199.729,-22.1458 201.938,-19.9375C204.146,-17.7292 206.792,-16.625 209.875,-16.625C213.042,-16.625 215.708,-17.7292 217.875,-19.9375C220.042,-22.1458 221.125,-24.7917 221.125,-27.875ZM271.5,-27.875C271.5,-31.0417 270.396,-33.7083 268.188,-35.875C265.979,-38.0417 263.333,-39.125 260.25,-39.125C257.083,-39.125 254.396,-38.0417 252.188,-35.875C249.979,-33.7083 248.875,-31.0417 248.875,-27.875C248.875,-24.7917 249.979,-22.1458 252.188,-19.9375C254.396,-17.7292 257.083,-16.625 260.25,-16.625C263.333,-16.625 265.979,-17.7292 268.188,-19.9375C270.396,-22.1458 271.5,-24.7917 271.5,-27.875Z" fill="#F4F4F4" fill-opacity="1">
  </path>
</svg>