<!-- Exported by Character Map UWP -->
<svg height="100%" viewBox="49 -217 253 253" width="100%" xmlns="http://www.w3.org/2000/svg" xmlns:xlink="http://www.w3.org/1999/xlink">
  <path d="M139.75,-100.25C139.75,-100.25 138.938,-101.354 137.313,-103.563C135.688,-105.771 133.417,-108.417 130.5,-111.5C127.583,-114.583 124.167,-117.438 120.25,-120.063C116.333,-122.688 112.083,-124.417 107.5,-125.25C96.25,-127.25 86.625,-126.604 78.625,-123.313C70.625,-120.021 64.2917,-115.104 59.625,-108.563C54.9583,-102.021 51.9375,-94.75 50.5625,-86.75C49.1875,-78.75 49.4167,-71 51.25,-63.5C53.75,-53.5 58.1042,-43.7083 64.3125,-34.125C70.5208,-24.5417 77.5417,-15.5208 85.375,-7.0625C93.2083,1.39583 100.937,8.95833 108.563,15.625C116.187,22.2917 122.708,27.7083 128.125,31.875C131.542,34.5417 135.396,35.875 139.688,35.875C143.979,35.875 147.833,34.5417 151.25,31.875C156.667,27.7083 163.188,22.2917 170.813,15.625C178.438,8.95833 186.167,1.39583 194,-7.0625C201.833,-15.5208 208.854,-24.5417 215.063,-34.125C221.271,-43.7083 225.625,-53.5 228.125,-63.5C230.042,-71 230.312,-78.75 228.938,-86.75C227.562,-94.75 224.562,-102.021 219.938,-108.563C215.312,-115.104 209,-120.021 201,-123.313C193,-126.604 183.375,-127.25 172.125,-125.25C167.542,-124.417 163.292,-122.688 159.375,-120.063C155.458,-117.438 152.042,-114.583 149.125,-111.5C146.208,-108.417 143.917,-105.771 142.25,-103.563C140.583,-101.354 139.75,-100.25 139.75,-100.25ZM264.25,-215.75C260.333,-215 256.792,-213.25 253.625,-210.5C250.458,-207.75 247.958,-205.146 246.125,-202.688C244.292,-200.229 243.375,-199 243.375,-199C243.375,-199 242.437,-200.229 240.563,-202.688C238.687,-205.146 236.167,-207.75 233,-210.5C229.833,-213.25 226.292,-215 222.375,-215.75C215.042,-217.083 208.792,-216.646 203.625,-214.438C198.458,-212.229 194.354,-208.937 191.313,-204.563C188.271,-200.187 186.292,-195.333 185.375,-190C184.458,-184.667 184.625,-179.5 185.875,-174.5C187.375,-168.083 190.021,-161.896 193.813,-155.938C197.604,-149.979 201.917,-144.396 206.75,-139.188C211.583,-133.979 216.417,-129.292 221.25,-125.125C226.083,-120.958 230.333,-117.5 234,-114.75C236.833,-112.75 239.958,-111.75 243.375,-111.75C246.792,-111.75 249.875,-112.75 252.625,-114.75C256.292,-117.5 260.542,-120.958 265.375,-125.125C270.208,-129.292 275.042,-133.979 279.875,-139.188C284.708,-144.396 289.021,-149.979 292.813,-155.938C296.604,-161.896 299.292,-168.083 300.875,-174.5C302.125,-179.5 302.292,-184.667 301.375,-190C300.458,-195.333 298.479,-200.187 295.438,-204.563C292.396,-208.937 288.271,-212.229 283.063,-214.438C277.854,-216.646 271.583,-217.083 264.25,-215.75ZM58.25,-129C62.4167,-138.75 69.75,-147.813 80.25,-156.188C90.75,-164.563 103.708,-171.042 119.125,-175.625C134.542,-180.208 151.792,-181.792 170.875,-180.375C172.125,-180.292 173.229,-180.646 174.188,-181.438C175.146,-182.229 175.667,-183.25 175.75,-184.5C175.833,-185.75 175.479,-186.854 174.688,-187.813C173.896,-188.771 172.875,-189.292 171.625,-189.375C156.625,-190.542 142.563,-189.833 129.438,-187.25C116.313,-184.667 104.438,-180.708 93.8125,-175.375C83.1875,-170.042 74.1458,-163.688 66.6875,-156.313C59.2292,-148.938 53.6667,-141.042 50,-132.625C49.5,-131.458 49.4792,-130.292 49.9375,-129.125C50.3958,-127.958 51.2083,-127.125 52.375,-126.625C53.5417,-126.125 54.6875,-126.104 55.8125,-126.563C56.9375,-127.021 57.75,-127.833 58.25,-129ZM291.875,-133.5C291.042,-134.5 290.021,-135.063 288.813,-135.188C287.604,-135.313 286.5,-135 285.5,-134.25C284.5,-133.417 283.938,-132.396 283.813,-131.188C283.688,-129.979 284,-128.875 284.75,-127.875C288,-123.792 290.271,-119.708 291.563,-115.625C292.854,-111.542 293.417,-107.583 293.25,-103.75C293.083,-99.8333 292.25,-95.9583 290.75,-92.125C289.25,-88.2917 287.208,-84.5833 284.625,-81C279.542,-73.9167 273.083,-67.9375 265.25,-63.0625C257.417,-58.1875 249.917,-55.2083 242.75,-54.125C241.5,-53.9583 240.5,-53.375 239.75,-52.375C239,-51.375 238.708,-50.2917 238.875,-49.125C239.042,-47.875 239.625,-46.875 240.625,-46.125C241.625,-45.375 242.75,-45.0833 244,-45.25C252.5,-46.5 261.188,-49.8958 270.063,-55.4375C278.938,-60.9792 286.25,-67.75 292,-75.75C294.917,-79.8333 297.292,-84.1875 299.125,-88.8125C300.958,-93.4375 302,-98.25 302.25,-103.25C302.5,-108.333 301.792,-113.417 300.125,-118.5C298.458,-123.583 295.708,-128.583 291.875,-133.5Z" fill="#F92F60" fill-opacity="1">
  </path>
</svg>