<!-- Exported by Character Map UWP -->
<svg height="100%" viewBox="49 -217 253 253" width="100%" xmlns="http://www.w3.org/2000/svg" xmlns:xlink="http://www.w3.org/1999/xlink">
  <path d="M175.75,35.875C154.75,35.875 136.375,32.6042 120.625,26.0625C104.875,19.5208 91.7292,10.4792 81.1875,-1.0625C70.6458,-12.6042 62.75,-26 57.5,-41.25C52.25,-56.5 49.625,-72.8333 49.625,-90.25C49.625,-107.667 52.25,-124 57.5,-139.25C62.75,-154.5 70.6458,-167.896 81.1875,-179.438C91.7292,-190.979 104.875,-200.021 120.625,-206.563C136.375,-213.104 154.75,-216.375 175.75,-216.375C196.75,-216.375 215.146,-213.104 230.938,-206.563C246.729,-200.021 259.875,-190.979 270.375,-179.438C280.875,-167.896 288.75,-154.5 294,-139.25C299.25,-124 301.875,-107.667 301.875,-90.25C301.875,-72.8333 299.25,-56.5 294,-41.25C288.75,-26 280.875,-12.6042 270.375,-1.0625C259.875,10.4792 246.729,19.5208 230.938,26.0625C215.146,32.6042 196.75,35.875 175.75,35.875Z" fill="#FFB02E" fill-opacity="1">
  </path>
  <path d="M130.75,-90.25C130.75,-95.25 128.104,-99.5 122.813,-103C117.521,-106.5 111.167,-108.25 103.75,-108.25C96.25,-108.25 89.8542,-106.5 84.5625,-103C79.2708,-99.5 76.625,-95.25 76.625,-90.25C76.625,-85.25 79.2708,-81 84.5625,-77.5C89.8542,-74 96.25,-72.25 103.75,-72.25C111.167,-72.25 117.521,-74 122.813,-77.5C128.104,-81 130.75,-85.25 130.75,-90.25Z" fill="#FF6723" fill-opacity="1">
  </path>
  <path d="M274.875,-90.25C274.875,-95.25 272.229,-99.5 266.938,-103C261.646,-106.5 255.292,-108.25 247.875,-108.25C240.375,-108.25 233.979,-106.5 228.688,-103C223.396,-99.5 220.75,-95.25 220.75,-90.25C220.75,-85.25 223.396,-81 228.688,-77.5C233.979,-74 240.375,-72.25 247.875,-72.25C255.292,-72.25 261.646,-74 266.938,-77.5C272.229,-81 274.875,-85.25 274.875,-90.25Z" fill="#FF6723" fill-opacity="1">
  </path>
  <path d="M94.5,-147.375C94.0833,-146.208 93.3125,-145.333 92.1875,-144.75C91.0625,-144.167 89.9167,-144.083 88.75,-144.5C87.5833,-144.917 86.7292,-145.688 86.1875,-146.813C85.6458,-147.938 85.5417,-149.083 85.875,-150.25C86.7917,-152.833 88.25,-155.833 90.25,-159.25C92.25,-162.667 94.875,-165.917 98.125,-169C101.458,-172.083 105.458,-174.75 110.125,-177C114.792,-179.25 120.167,-180.375 126.25,-180.375C127.5,-180.375 128.563,-179.938 129.438,-179.063C130.313,-178.188 130.75,-177.125 130.75,-175.875C130.75,-174.625 130.313,-173.563 129.438,-172.688C128.563,-171.813 127.5,-171.375 126.25,-171.375C121.5,-171.375 117.313,-170.5 113.688,-168.75C110.063,-167 106.958,-164.875 104.375,-162.375C101.708,-159.875 99.5417,-157.229 97.875,-154.438C96.2083,-151.646 95.0833,-149.292 94.5,-147.375Z" fill="#402A32" fill-opacity="1">
  </path>
  <path d="M247.125,-162.375C244.542,-164.875 241.438,-167 237.813,-168.75C234.188,-170.5 230,-171.375 225.25,-171.375C224,-171.375 222.938,-171.813 222.063,-172.688C221.188,-173.563 220.75,-174.625 220.75,-175.875C220.75,-177.125 221.188,-178.188 222.063,-179.063C222.938,-179.938 224,-180.375 225.25,-180.375C231.333,-180.375 236.708,-179.25 241.375,-177C246.042,-174.75 250.042,-172.083 253.375,-169C256.625,-165.917 259.25,-162.667 261.25,-159.25C263.25,-155.833 264.708,-152.833 265.625,-150.25C265.958,-149.083 265.854,-147.938 265.313,-146.813C264.771,-145.688 263.917,-144.917 262.75,-144.5C261.583,-144.167 260.438,-144.271 259.313,-144.813C258.188,-145.354 257.417,-146.208 257,-147.375C256.417,-149.292 255.292,-151.646 253.625,-154.438C251.958,-157.229 249.792,-159.875 247.125,-162.375Z" fill="#402A32" fill-opacity="1">
  </path>
  <path d="M112.5,-115.625C112.083,-113.125 110.833,-111.188 108.75,-109.813C106.667,-108.438 104.417,-108 102,-108.5C99.5833,-108.917 97.6667,-110.167 96.25,-112.25C94.8333,-114.333 94.375,-116.583 94.875,-119C95.2917,-121.083 96.0625,-123.563 97.1875,-126.438C98.3125,-129.313 100.125,-132.083 102.625,-134.75C105.208,-137.583 108.458,-139.896 112.375,-141.688C116.292,-143.479 120.917,-144.375 126.25,-144.375C131.583,-144.375 136.229,-143.458 140.188,-141.625C144.146,-139.792 147.417,-137.458 150,-134.625C152.417,-131.875 154.208,-129.063 155.375,-126.188C156.542,-123.312 157.292,-120.875 157.625,-118.875C158.042,-116.375 157.542,-114.104 156.125,-112.063C154.708,-110.021 152.75,-108.792 150.25,-108.375C147.833,-107.958 145.604,-108.479 143.563,-109.938C141.521,-111.396 140.292,-113.333 139.875,-115.75C139.708,-116.667 139.375,-117.75 138.875,-119C138.375,-120.25 137.625,-121.417 136.625,-122.5C135.792,-123.417 134.563,-124.271 132.938,-125.063C131.313,-125.854 129.083,-126.25 126.25,-126.25C123.25,-126.25 120.979,-125.854 119.438,-125.063C117.896,-124.271 116.708,-123.458 115.875,-122.625C114.958,-121.542 114.229,-120.375 113.688,-119.125C113.146,-117.875 112.75,-116.708 112.5,-115.625Z" fill="#402A32" fill-opacity="1">
  </path>
  <path d="M211.625,-115.625C211.125,-113.125 209.854,-111.188 207.813,-109.813C205.771,-108.438 203.542,-108 201.125,-108.5C198.625,-108.917 196.688,-110.167 195.313,-112.25C193.938,-114.333 193.5,-116.583 194,-119C194.333,-121.083 195.083,-123.563 196.25,-126.438C197.417,-129.313 199.208,-132.083 201.625,-134.75C204.292,-137.583 207.583,-139.896 211.5,-141.688C215.417,-143.479 220.042,-144.375 225.375,-144.375C230.708,-144.375 235.354,-143.458 239.313,-141.625C243.271,-139.792 246.542,-137.458 249.125,-134.625C251.542,-131.875 253.333,-129.063 254.5,-126.188C255.667,-123.312 256.417,-120.875 256.75,-118.875C257.167,-116.375 256.667,-114.104 255.25,-112.063C253.833,-110.021 251.875,-108.792 249.375,-108.375C246.958,-107.958 244.729,-108.479 242.688,-109.938C240.646,-111.396 239.417,-113.333 239,-115.75C238.833,-116.667 238.5,-117.75 238,-119C237.5,-120.25 236.75,-121.417 235.75,-122.5C234.917,-123.417 233.688,-124.271 232.063,-125.063C230.438,-125.854 228.208,-126.25 225.375,-126.25C222.375,-126.25 220.083,-125.854 218.5,-125.063C216.917,-124.271 215.75,-123.458 215,-122.625C214,-121.542 213.25,-120.375 212.75,-119.125C212.25,-117.875 211.875,-116.708 211.625,-115.625Z" fill="#402A32" fill-opacity="1">
  </path>
  <path d="M116.375,-70.375C114.375,-68.9583 113.188,-67 112.813,-64.5C112.438,-62 113,-59.7917 114.5,-57.875C116.5,-55.2083 120.104,-51.8125 125.313,-47.6875C130.521,-43.5625 137.333,-39.875 145.75,-36.625C154.167,-33.375 164.167,-31.75 175.75,-31.75C187.333,-31.75 197.333,-33.375 205.75,-36.625C214.167,-39.875 221,-43.5625 226.25,-47.6875C231.5,-51.8125 235.083,-55.2083 237,-57.875C238.5,-59.7917 239.083,-62 238.75,-64.5C238.417,-67 237.25,-68.9583 235.25,-70.375C233.25,-71.875 231.021,-72.4583 228.563,-72.125C226.104,-71.7917 224.125,-70.625 222.625,-68.625C221.625,-67.2917 219.229,-65.1042 215.438,-62.0625C211.646,-59.0208 206.438,-56.2083 199.813,-53.625C193.188,-51.0417 185.167,-49.75 175.75,-49.75C166.333,-49.75 158.333,-51.0417 151.75,-53.625C145.167,-56.2083 139.979,-59.0208 136.188,-62.0625C132.396,-65.1042 129.958,-67.2917 128.875,-68.625C127.458,-70.625 125.5,-71.7917 123,-72.125C120.5,-72.4583 118.292,-71.875 116.375,-70.375Z" fill="#402A32" fill-opacity="1">
  </path>
</svg>