<!-- Exported by Character Map UWP -->
<svg height="100%" viewBox="49 -217 253 253" width="100%" xmlns="http://www.w3.org/2000/svg" xmlns:xlink="http://www.w3.org/1999/xlink">
  <path d="M175.75,35.875C154.75,35.875 136.354,32.6042 120.563,26.0625C104.771,19.5208 91.625,10.4792 81.125,-1.0625C70.625,-12.6042 62.75,-26 57.5,-41.25C52.25,-56.5 49.625,-72.8333 49.625,-90.25C49.625,-107.667 52.25,-124 57.5,-139.25C62.75,-154.5 70.625,-167.896 81.125,-179.438C91.625,-190.979 104.771,-200.021 120.563,-206.563C136.354,-213.104 154.75,-216.375 175.75,-216.375C196.75,-216.375 215.146,-213.104 230.938,-206.563C246.729,-200.021 259.875,-190.979 270.375,-179.438C280.875,-167.896 288.75,-154.5 294,-139.25C299.25,-124 301.875,-107.667 301.875,-90.25C301.875,-72.8333 299.25,-56.5 294,-41.25C288.75,-26 280.875,-12.6042 270.375,-1.0625C259.875,10.4792 246.729,19.5208 230.938,26.0625C215.146,32.6042 196.75,35.875 175.75,35.875Z" fill="#FFB02E" fill-opacity="1">
  </path>
  <path d="M116.75,-161.375L152.75,-143.375C156.083,-141.708 157.75,-139 157.75,-135.25C157.75,-131.583 156.083,-128.917 152.75,-127.25L116.75,-109.25C114.5,-108.083 112.208,-107.896 109.875,-108.688C107.542,-109.479 105.792,-111 104.625,-113.25C103.542,-115.5 103.396,-117.792 104.188,-120.125C104.979,-122.458 106.458,-124.208 108.625,-125.375L128.625,-135.25L108.625,-145.25C106.458,-146.333 104.979,-148.063 104.188,-150.438C103.396,-152.813 103.542,-155.125 104.625,-157.375C105.792,-159.542 107.542,-161.021 109.875,-161.813C112.208,-162.604 114.5,-162.458 116.75,-161.375Z" fill="#402A32" fill-opacity="1">
  </path>
  <path d="M234.875,-161.375L198.75,-143.375C195.417,-141.708 193.75,-139 193.75,-135.25C193.75,-131.583 195.417,-128.917 198.75,-127.25L234.875,-109.25C237.042,-108.083 239.312,-107.896 241.688,-108.688C244.062,-109.479 245.792,-111 246.875,-113.25C248.042,-115.5 248.229,-117.792 247.438,-120.125C246.646,-122.458 245.125,-124.208 242.875,-125.375L223,-135.25L242.875,-145.25C245.125,-146.333 246.646,-148.063 247.438,-150.438C248.229,-152.813 248.042,-155.125 246.875,-157.375C245.792,-159.542 244.062,-161.021 241.688,-161.813C239.312,-162.604 237.042,-162.458 234.875,-161.375Z" fill="#402A32" fill-opacity="1">
  </path>
  <path d="M175.773,-0.138672C190.773,-0.138672 203.458,-2.31445 213.828,-6.66602C224.198,-11.0176 232.67,-16.6191 239.244,-23.4707C245.818,-30.3223 250.934,-37.5908 254.591,-45.2764C258.248,-52.9619 260.886,-60.2074 262.507,-67.0127C264.127,-73.818 265.1,-79.3965 265.424,-83.748C265.748,-88.0996 265.91,-90.2754 265.91,-90.2754L85.7754,-90.2754C85.7754,-90.2754 85.9375,-88.0996 86.2617,-83.748C86.5859,-79.3965 87.5348,-73.818 89.1084,-67.0127C90.682,-60.2074 93.2975,-52.9619 96.9551,-45.2764C100.613,-37.5908 105.752,-30.3223 112.372,-23.4707C118.993,-16.6191 127.465,-11.0176 137.788,-6.66602C148.112,-2.31445 160.773,-0.138672 175.773,-0.138672Z" fill="#BB1D80" fill-opacity="1">
  </path>
  <path d="M243.375,-76.75C247.125,-76.75 250.312,-78.0625 252.938,-80.6875C255.562,-83.3125 256.875,-86.5 256.875,-90.25L94.75,-90.25C94.75,-86.5 96.0625,-83.3125 98.6875,-80.6875C101.313,-78.0625 104.5,-76.75 108.25,-76.75Z" fill="#FFFFFF" fill-opacity="1">
  </path>
</svg>