<!-- Exported by Character Map UWP -->
<svg height="100%" viewBox="49 -199 253 226" width="100%" xmlns="http://www.w3.org/2000/svg" xmlns:xlink="http://www.w3.org/1999/xlink">
  <path d="M126.375,-170.875L137.375,-166.125C138.958,-165.375 139.75,-164.125 139.75,-162.375C139.75,-160.625 138.958,-159.375 137.375,-158.625L126.375,-153.875C123.708,-152.625 121.792,-150.708 120.625,-148.125L112.125,-128.625C111.375,-127.042 110.083,-126.25 108.25,-126.25C106.417,-126.25 105.125,-127.042 104.375,-128.625L95.75,-148.125C94.6667,-150.792 92.75,-152.708 90,-153.875L79.125,-158.625C77.4583,-159.375 76.625,-160.625 76.625,-162.375C76.625,-164.125 77.4583,-165.375 79.125,-166.125L90,-170.875C92.6667,-172.125 94.5833,-174.042 95.75,-176.625L104.375,-196C105.125,-197.583 106.396,-198.375 108.188,-198.375C109.979,-198.375 111.292,-197.583 112.125,-196L120.625,-176.625C121.708,-173.958 123.625,-172.042 126.375,-170.875Z" fill="#F9C23C" fill-opacity="1">
  </path>
  <path d="M262,-112.25L294.625,-97.5C297.875,-95.9167 300.042,-93.5625 301.125,-90.4375C302.208,-87.3125 302.208,-84.1875 301.125,-81.0625C300.042,-77.9375 297.875,-75.5833 294.625,-74L262,-59.25C254,-55.5833 248.25,-49.625 244.75,-41.375L218.875,19.625C217.292,22.875 214.958,25.0208 211.875,26.0625C208.792,27.1042 205.708,27.1042 202.625,26.0625C199.542,25.0208 197.208,22.875 195.625,19.625L169.875,-41.375C166.458,-49.625 160.708,-55.5833 152.625,-59.25L120,-74C116.75,-75.5833 114.583,-77.9375 113.5,-81.0625C112.417,-84.1875 112.417,-87.3125 113.5,-90.4375C114.583,-93.5625 116.75,-95.9167 120,-97.5L152.625,-112.25C160.625,-115.917 166.375,-121.875 169.875,-130.125L195.625,-191.125C197.208,-194.292 199.542,-196.417 202.625,-197.5C205.708,-198.583 208.792,-198.583 211.875,-197.5C214.958,-196.417 217.292,-194.292 218.875,-191.125L244.75,-130.125C248.167,-121.875 253.917,-115.917 262,-112.25Z" fill="#F9C23C" fill-opacity="1">
  </path>
  <path d="M106.25,-51.25L95.125,-78C94.125,-80.1667 92.4792,-81.25 90.1875,-81.25C87.8958,-81.25 86.25,-80.1667 85.25,-78L74.125,-51.25C72.625,-47.6667 70.1667,-45.0417 66.75,-43.375L52.75,-36.875C50.6667,-35.7917 49.625,-34.0625 49.625,-31.6875C49.625,-29.3125 50.6667,-27.5833 52.75,-26.5L66.75,-20C70.1667,-18.3333 72.625,-15.7083 74.125,-12.125L85.25,14.625C86.25,16.7917 87.8958,17.875 90.1875,17.875C92.4792,17.875 94.125,16.7917 95.125,14.625L106.25,-12.125C107.75,-15.7083 110.208,-18.3333 113.625,-20L127.625,-26.5C129.708,-27.5833 130.75,-29.3125 130.75,-31.6875C130.75,-34.0625 129.708,-35.7917 127.625,-36.875L113.625,-43.375C110.125,-45.0417 107.667,-47.6667 106.25,-51.25Z" fill="#F9C23C" fill-opacity="1">
  </path>
</svg>