<!-- Exported by Character Map UWP -->
<svg height="100%" viewBox="50 -216 252 252" width="100%" xmlns="http://www.w3.org/2000/svg" xmlns:xlink="http://www.w3.org/1999/xlink">
  <path d="M135.23,-170.738C132.133,-170.738 129.221,-171.323 126.494,-172.491C123.768,-173.66 121.371,-175.277 119.306,-177.343C117.24,-179.409 115.623,-181.8 114.455,-184.518C113.287,-187.235 112.703,-190.152 112.703,-193.268C112.703,-196.383 113.287,-199.3 114.455,-202.018C115.623,-204.735 117.24,-207.127 119.306,-209.192C121.371,-211.258 123.768,-212.875 126.494,-214.044C129.221,-215.213 132.133,-215.797 135.23,-215.797C138.346,-215.797 141.263,-215.213 143.981,-214.044C146.7,-212.875 149.091,-211.258 151.156,-209.192C153.221,-207.127 154.838,-204.735 156.007,-202.018C157.175,-199.3 157.76,-196.383 157.76,-193.268C157.76,-190.152 157.175,-187.235 156.007,-184.518C154.838,-181.8 153.221,-179.409 151.156,-177.343C149.091,-175.277 146.7,-173.66 143.981,-172.491C141.263,-171.323 138.346,-170.738 135.23,-170.738Z" fill="#D3883E" fill-opacity="1">
  </path>
  <path d="M216.355,-170.738C213.258,-170.738 210.346,-171.323 207.619,-172.491C204.893,-173.66 202.496,-175.277 200.431,-177.343C198.365,-179.409 196.748,-181.8 195.58,-184.518C194.412,-187.235 193.828,-190.152 193.828,-193.268C193.828,-196.383 194.412,-199.3 195.58,-202.018C196.748,-204.735 198.365,-207.127 200.431,-209.192C202.496,-211.258 204.893,-212.875 207.619,-214.044C210.346,-215.213 213.258,-215.797 216.355,-215.797C219.471,-215.797 222.388,-215.213 225.106,-214.044C227.825,-212.875 230.216,-211.258 232.281,-209.192C234.346,-207.127 235.963,-204.735 237.132,-202.018C238.3,-199.3 238.885,-196.383 238.885,-193.268C238.885,-190.152 238.3,-187.235 237.132,-184.518C235.963,-181.8 234.346,-179.409 232.281,-177.343C230.216,-175.277 227.825,-173.66 225.106,-172.491C222.388,-171.323 219.471,-170.738 216.355,-170.738Z" fill="#D3883E" fill-opacity="1">
  </path>
  <path d="M189.875,-94.25C185.958,-87.8333 184.875,-81 186.625,-73.75C188.375,-66.5 192.458,-60.9167 198.875,-57L260.375,-19.5C266.708,-15.5833 273.521,-14.5208 280.813,-16.3125C288.104,-18.1042 293.667,-22.1667 297.5,-28.5C301.417,-34.9167 302.5,-41.75 300.75,-49C299,-56.25 294.917,-61.7917 288.5,-65.625L227,-103.25C220.667,-107.083 213.854,-108.125 206.563,-106.375C199.271,-104.625 193.708,-100.583 189.875,-94.25Z" fill="#D3883E" fill-opacity="1">
  </path>
  <path d="M64,-66.125L126.5,-102.125C132.917,-105.875 139.729,-106.792 146.938,-104.875C154.146,-102.958 159.625,-98.75 163.375,-92.25C167.125,-85.8333 168.021,-79 166.063,-71.75C164.104,-64.5 159.917,-59.0417 153.5,-55.375L91.125,-19.25C84.625,-15.5833 77.7708,-14.7083 70.5625,-16.625C63.3542,-18.5417 57.875,-22.75 54.125,-29.25C50.375,-35.6667 49.4792,-42.4792 51.4375,-49.6875C53.3958,-56.8958 57.5833,-62.375 64,-66.125Z" fill="#D3883E" fill-opacity="1">
  </path>
  <path d="M247.875,-142.875C247.875,-152.875 245.646,-162.042 241.188,-170.375C236.729,-178.708 230.896,-185.917 223.688,-192C216.479,-198.083 208.667,-202.813 200.25,-206.188C191.833,-209.563 183.667,-211.25 175.75,-211.25C167.917,-211.25 159.792,-209.563 151.375,-206.188C142.958,-202.813 135.146,-198.083 127.938,-192C120.729,-185.917 114.896,-178.708 110.438,-170.375C105.979,-162.042 103.75,-152.875 103.75,-142.875C103.75,-129.625 106.979,-119.125 113.438,-111.375C119.896,-103.625 128.583,-98.0625 139.5,-94.6875C150.417,-91.3125 162.5,-89.625 175.75,-89.625C189,-89.625 201.083,-91.3125 212,-94.6875C222.917,-98.0625 231.625,-103.625 238.125,-111.375C244.625,-119.125 247.875,-129.625 247.875,-142.875Z" fill="#E19747" fill-opacity="1">
  </path>
  <path d="M247.875,-142.875C247.875,-152.875 245.646,-162.042 241.188,-170.375C236.729,-178.708 230.896,-185.917 223.688,-192C216.479,-198.083 208.667,-202.813 200.25,-206.188C191.833,-209.563 183.667,-211.25 175.75,-211.25C167.917,-211.25 159.792,-209.563 151.375,-206.188C142.958,-202.813 135.146,-198.083 127.938,-192C120.729,-185.917 114.896,-178.708 110.438,-170.375C105.979,-162.042 103.75,-152.875 103.75,-142.875C103.75,-129.625 106.979,-119.125 113.438,-111.375C119.896,-103.625 128.583,-98.0625 139.5,-94.6875C150.417,-91.3125 162.5,-89.625 175.75,-89.625C189,-89.625 201.083,-91.3125 212,-94.6875C222.917,-98.0625 231.625,-103.625 238.125,-111.375C244.625,-119.125 247.875,-129.625 247.875,-142.875Z" fill="#E19747" fill-opacity="1">
  </path>
  <path d="M222.875,-99.125C230.542,-92.5417 236.625,-84.5208 241.125,-75.0625C245.625,-65.6042 247.875,-55.4583 247.875,-44.625C247.875,-34.625 246,-25.2708 242.25,-16.5625C238.5,-7.85417 233.333,-0.208333 226.75,6.375C220.167,12.9583 212.521,18.125 203.813,21.875C195.104,25.625 185.75,27.5 175.75,27.5C165.833,27.5 156.521,25.625 147.813,21.875C139.104,18.125 131.438,12.9583 124.813,6.375C118.188,-0.208333 113.021,-7.85417 109.313,-16.5625C105.604,-25.2708 103.75,-34.625 103.75,-44.625C103.75,-55.4583 105.979,-65.6042 110.438,-75.0625C114.896,-84.5208 120.958,-92.5417 128.625,-99.125C120.958,-103.208 114.896,-108.813 110.438,-115.938C105.979,-123.063 103.75,-132.042 103.75,-142.875C103.75,-152.875 105.979,-162.042 110.438,-170.375C114.896,-178.708 120.729,-185.917 127.938,-192C135.146,-198.083 142.958,-202.813 151.375,-206.188C159.792,-209.563 167.917,-211.25 175.75,-211.25C183.667,-211.25 191.833,-209.563 200.25,-206.188C208.667,-202.813 216.479,-198.083 223.688,-192C230.896,-185.917 236.729,-178.708 241.188,-170.375C245.646,-162.042 247.875,-152.875 247.875,-142.875C247.875,-132.042 245.625,-123.063 241.125,-115.938C236.625,-108.813 230.542,-103.208 222.875,-99.125Z" fill="#E19747" fill-opacity="1">
  </path>
  <path d="M99.5,-31.5C94.9167,-28 91.5417,-23.6875 89.375,-18.5625C87.2083,-13.4375 86.4167,-8.125 87,-2.625C87.5833,2.875 89.625,7.95833 93.125,12.625L101.125,23.5C104.625,28.1667 108.938,31.5625 114.063,33.6875C119.188,35.8125 124.5,36.5833 130,36C135.5,35.4167 140.583,33.375 145.25,29.875C149.917,26.4583 153.313,22.1875 155.438,17.0625C157.563,11.9375 158.354,6.60417 157.813,1.0625C157.271,-4.47917 155.25,-9.58333 151.75,-14.25L143.625,-25C140.208,-29.6667 135.938,-33.0625 130.813,-35.1875C125.688,-37.3125 120.354,-38.1042 114.813,-37.5625C109.271,-37.0208 104.167,-35 99.5,-31.5ZM252.125,-31.5C256.792,-28 260.188,-23.6875 262.313,-18.5625C264.438,-13.4375 265.208,-8.125 264.625,-2.625C264.042,2.875 262,7.95833 258.5,12.625L250.5,23.5C247,28.1667 242.687,31.5625 237.563,33.6875C232.437,35.8125 227.125,36.5833 221.625,36C216.125,35.4167 211.042,33.375 206.375,29.875C201.708,26.4583 198.313,22.1875 196.188,17.0625C194.063,11.9375 193.292,6.60417 193.875,1.0625C194.458,-4.47917 196.458,-9.58333 199.875,-14.25L208,-25C211.417,-29.6667 215.688,-33.0625 220.813,-35.1875C225.938,-37.3125 231.271,-38.1042 236.813,-37.5625C242.354,-37.0208 247.458,-35 252.125,-31.5Z" fill="#D3883E" fill-opacity="1">
  </path>
  <path d="M228.5,-187.5C222.333,-193.75 215.208,-198.958 207.125,-203.125C209.708,-205.542 212.792,-206.75 216.375,-206.75C220.042,-206.75 223.208,-205.438 225.875,-202.813C228.542,-200.188 229.875,-197 229.875,-193.25C229.875,-191.167 229.417,-189.25 228.5,-187.5ZM144.5,-203.125C136.417,-198.958 129.25,-193.75 123,-187.5C122.167,-189.25 121.75,-191.167 121.75,-193.25C121.75,-197 123.063,-200.188 125.688,-202.813C128.313,-205.438 131.5,-206.75 135.25,-206.75C138.75,-206.75 141.833,-205.542 144.5,-203.125ZM207.25,-130.75C207.25,-137 204.188,-142.333 198.063,-146.75C191.938,-151.167 184.5,-153.375 175.75,-153.375C167.083,-153.375 159.667,-151.167 153.5,-146.75C147.333,-142.333 144.25,-137 144.25,-130.75C144.25,-126.667 145.667,-122.542 148.5,-118.375C151.333,-114.208 155.146,-110.729 159.938,-107.938C164.729,-105.146 170,-103.75 175.75,-103.75C181.583,-103.75 186.875,-105.146 191.625,-107.938C196.375,-110.729 200.167,-114.208 203,-118.375C205.833,-122.542 207.25,-126.667 207.25,-130.75ZM220.875,-35.625C220.875,-43.875 218.833,-51.4167 214.75,-58.25C210.667,-65.0833 205.229,-70.5208 198.438,-74.5625C191.646,-78.6042 184.083,-80.625 175.75,-80.625C167.5,-80.625 159.958,-78.6042 153.125,-74.5625C146.292,-70.5208 140.854,-65.0833 136.813,-58.25C132.771,-51.4167 130.75,-43.875 130.75,-35.625L130.75,-35.25C136,-33 140.292,-29.5833 143.625,-25L151.75,-14.25C156.167,-8.25 158.25,-1.54167 158,5.875C163.667,8.29167 169.583,9.5 175.75,9.5C182,9.5 187.958,8.25 193.625,5.75C193.375,-1.58333 195.458,-8.25 199.875,-14.25L208,-25C211.333,-29.5833 215.625,-32.9583 220.875,-35.125ZM133.125,-16.875L141.125,-6C144.125,-2 145.271,2.45833 144.563,7.375C143.854,12.2917 141.5,16.25 137.5,19.25C133.5,22.25 129.042,23.375 124.125,22.625C119.208,21.875 115.25,19.5 112.25,15.5L104.25,4.75C101.25,0.75 100.104,-3.70833 100.813,-8.625C101.521,-13.5417 103.875,-17.5 107.875,-20.5C111.875,-23.5 116.333,-24.625 121.25,-23.875C126.167,-23.125 130.125,-20.7917 133.125,-16.875ZM243.75,-20.5C247.75,-17.5 250.104,-13.5417 250.813,-8.625C251.521,-3.70833 250.417,0.75 247.5,4.75L239.375,15.5C236.375,19.5 232.417,21.875 227.5,22.625C222.583,23.375 218.125,22.25 214.125,19.25C210.125,16.25 207.771,12.2917 207.063,7.375C206.354,2.45833 207.5,-2 210.5,-6L218.5,-16.875C221.5,-20.7917 225.458,-23.125 230.375,-23.875C235.292,-24.625 239.75,-23.5 243.75,-20.5Z" fill="#FFDEA7" fill-opacity="1">
  </path>
  <path d="M157.777,-157.797C157.777,-158.418 157.66,-159.001 157.427,-159.547C157.193,-160.092 156.869,-160.572 156.456,-160.985C156.043,-161.399 155.564,-161.722 155.02,-161.956C154.475,-162.19 153.891,-162.307 153.268,-162.307C152.644,-162.307 152.06,-162.19 151.517,-161.956C150.973,-161.722 150.494,-161.399 150.081,-160.985C149.668,-160.572 149.344,-160.092 149.109,-159.547C148.875,-159.001 148.758,-158.418 148.758,-157.797C148.758,-157.173 148.875,-156.59 149.109,-156.046C149.344,-155.502 149.668,-155.024 150.081,-154.61C150.494,-154.197 150.973,-153.873 151.517,-153.639C152.06,-153.404 152.644,-153.287 153.268,-153.287C153.891,-153.287 154.475,-153.404 155.02,-153.639C155.564,-153.873 156.043,-154.197 156.456,-154.61C156.869,-155.024 157.193,-155.502 157.427,-156.046C157.66,-156.59 157.777,-157.173 157.777,-157.797Z" fill="#000000" fill-opacity="1">
  </path>
  <path d="M202.777,-157.797C202.777,-158.418 202.66,-159.001 202.427,-159.547C202.193,-160.092 201.869,-160.572 201.456,-160.985C201.043,-161.399 200.564,-161.722 200.02,-161.956C199.475,-162.19 198.891,-162.307 198.268,-162.307C197.644,-162.307 197.06,-162.19 196.517,-161.956C195.973,-161.722 195.494,-161.399 195.081,-160.985C194.668,-160.572 194.344,-160.092 194.109,-159.547C193.875,-159.001 193.758,-158.418 193.758,-157.797C193.758,-157.173 193.875,-156.59 194.109,-156.046C194.344,-155.502 194.668,-155.024 195.081,-154.61C195.494,-154.197 195.973,-153.873 196.517,-153.639C197.06,-153.404 197.644,-153.287 198.268,-153.287C198.891,-153.287 199.475,-153.404 200.02,-153.639C200.564,-153.873 201.043,-154.197 201.456,-154.61C201.869,-155.024 202.193,-155.502 202.427,-156.046C202.66,-156.59 202.777,-157.173 202.777,-157.797Z" fill="#000000" fill-opacity="1">
  </path>
  <path d="M167.125,-141.625C166.708,-140.625 167.042,-139.583 168.125,-138.5L172.625,-134C173.458,-133.083 174.5,-132.625 175.75,-132.625C177,-132.625 178.083,-133.083 179,-134L183.5,-138.5C184.583,-139.583 184.875,-140.625 184.375,-141.625C183.625,-143.375 182.25,-144.25 180.25,-144.25L171.25,-144.25C169.333,-144.25 167.958,-143.375 167.125,-141.625Z" fill="#000000" fill-opacity="1">
  </path>
</svg>