<!-- Exported by Character Map UWP -->
<svg height="100%" viewBox="75 -216 199 251" width="100%" xmlns="http://www.w3.org/2000/svg" xmlns:xlink="http://www.w3.org/1999/xlink">
  <path d="M163.75,-195.875C162.583,-193.125 161.479,-190.208 160.438,-187.125C159.396,-184.042 158.333,-180.875 157.25,-177.625C155.667,-173.042 154.063,-168.479 152.438,-163.938C150.813,-159.396 148.958,-155.208 146.875,-151.375C144.792,-147.458 141.396,-142.958 136.688,-137.875C131.979,-132.792 127,-128.375 121.75,-124.625C121,-124.042 120.146,-123.458 119.188,-122.875C118.229,-122.292 117.167,-121.667 116,-121C112.5,-118.917 108.438,-116.229 103.813,-112.938C99.1875,-109.646 94.7083,-105.375 90.375,-100.125C86.0417,-94.875 82.4375,-88.25 79.5625,-80.25C76.6875,-72.25 75.25,-62.5417 75.25,-51.125C75.25,-36.7917 77.1875,-24.7083 81.0625,-14.875C84.9375,-5.04167 89.9792,2.97917 96.1875,9.1875C102.396,15.3958 109.063,20.2292 116.188,23.6875C123.313,27.1458 130.229,29.5833 136.938,31C143.646,32.4167 149.438,33.2708 154.313,33.5625C159.188,33.8542 162.375,33.9583 163.875,33.875C163.958,33.875 164.042,33.875 164.125,33.875C164.208,33.875 164.292,33.875 164.375,33.875C165.542,33.875 168.854,33.9167 174.313,34C179.771,34.0833 186.042,34.1875 193.125,34.3125C200.208,34.4375 206.792,34.5833 212.875,34.75C214.792,35.1667 216.75,35.375 218.75,35.375L232.5,35.375C239.5,35.375 245.5,32.8958 250.5,27.9375C255.5,22.9792 258,16.9583 258,9.875C258,5.29167 256.833,1 254.5,-3C259.083,-5 262.813,-8.10417 265.688,-12.3125C268.563,-16.5208 270,-21.25 270,-26.5C270,-30.75 269.063,-34.6458 267.188,-38.1875C265.313,-41.7292 262.833,-44.6667 259.75,-47C264,-48.8333 267.458,-51.7083 270.125,-55.625C272.792,-59.5417 274.125,-63.9167 274.125,-68.75C274.125,-74.1667 272.5,-78.9583 269.25,-83.125C266,-87.2917 261.917,-90.0833 257,-91.5C261.917,-96.5833 264.375,-102.708 264.375,-109.875C264.375,-117.042 261.833,-123.188 256.75,-128.313C251.667,-133.438 245.5,-136 238.25,-136L209.125,-136C207.792,-136 206.5,-135.917 205.25,-135.75C205.25,-135.917 205.833,-137.729 207,-141.188C208.167,-144.646 209.604,-148.771 211.313,-153.563C213.021,-158.354 214.708,-162.917 216.375,-167.25C220.875,-179.167 221.604,-189.167 218.563,-197.25C215.521,-205.333 209.833,-210.75 201.5,-213.5C193.75,-216.167 186.396,-215.875 179.438,-212.625C172.479,-209.375 167.25,-203.792 163.75,-195.875Z" fill="#FFC83D" fill-opacity="1">
  </path>
  <path d="M197.5,34.5C193.167,32.75 189.938,29.875 187.813,25.875C185.688,21.875 184.625,17.7083 184.625,13.375C184.625,11.7917 184.958,9.79167 185.625,7.375C186.292,4.95833 187.375,2.625 188.875,0.375L238.875,0.375C240.125,0.375 241.187,-0.0625 242.063,-0.9375C242.937,-1.8125 243.375,-2.875 243.375,-4.125C243.375,-5.375 242.937,-6.4375 242.063,-7.3125C241.187,-8.1875 240.125,-8.625 238.875,-8.625L190.125,-8.625C186.458,-13.375 184.625,-19.0417 184.625,-25.625C184.625,-27.4583 185,-29.7708 185.75,-32.5625C186.5,-35.3542 187.75,-38.0833 189.5,-40.75L238.875,-40.75C240.125,-40.75 241.187,-41.1875 242.063,-42.0625C242.937,-42.9375 243.375,-44 243.375,-45.25C243.375,-46.5 242.937,-47.5625 242.063,-48.4375C241.187,-49.3125 240.125,-49.75 238.875,-49.75L191.5,-49.75C189.25,-52.1667 187.542,-55.0417 186.375,-58.375C185.208,-61.7083 184.625,-65.0417 184.625,-68.375C184.625,-70.0417 184.917,-72.0208 185.5,-74.3125C186.083,-76.6042 187,-78.9167 188.25,-81.25L238.875,-81.25C240.125,-81.25 241.187,-81.6875 242.063,-82.5625C242.937,-83.4375 243.375,-84.5 243.375,-85.75C243.375,-87 242.937,-88.0625 242.063,-88.9375C241.187,-89.8125 240.125,-90.25 238.875,-90.25L192.25,-90.25C189.667,-92.9167 187.75,-96.0625 186.5,-99.6875C185.25,-103.313 184.625,-106.667 184.625,-109.75C184.625,-112.25 185.167,-115.375 186.25,-119.125C187.333,-122.875 189.188,-126.313 191.813,-129.438C194.437,-132.563 198.083,-134.458 202.75,-135.125L202.75,-135.25C200.5,-135.25 197.396,-134.833 193.438,-134C189.479,-133.167 185.458,-131.771 181.375,-129.813C177.292,-127.854 173.833,-125.167 171,-121.75C168.167,-118.333 166.75,-113.917 166.75,-108.5C166.75,-102.917 167.667,-98.4583 169.5,-95.125C171.333,-91.7917 173.5,-89.25 176,-87.5C173.5,-86.3333 171.292,-83.8333 169.375,-80C167.458,-76.1667 166.5,-71.6667 166.5,-66.5C166.5,-62.5833 167.292,-59.125 168.875,-56.125C170.458,-53.125 172.042,-50.7708 173.625,-49.0625C175.208,-47.3542 176,-46.5 176,-46.5C176,-46.5 175.208,-45.5625 173.625,-43.6875C172.042,-41.8125 170.458,-39.3333 168.875,-36.25C167.292,-33.1667 166.5,-29.75 166.5,-26C166.5,-21.8333 167.354,-18.1875 169.063,-15.0625C170.771,-11.9375 173.083,-9.33333 176,-7.25C174.417,-6.33333 172.438,-4.3125 170.063,-1.1875C167.688,1.9375 166.5,6.125 166.5,11.375C166.5,16.625 168.542,21.3542 172.625,25.5625C176.708,29.7708 182.833,32.7083 191,34.375C192.083,34.375 193.167,34.375 194.25,34.375C195.333,34.375 196.417,34.4167 197.5,34.5Z" fill="#D67D00" fill-opacity="1">
  </path>
</svg>